G04 EasyPC Gerber Version 21.0.3 Build 4286 *
G04 #@! TF.Part,Single*
G04 #@! TF.FileFunction,Legend,Top *
G04 #@! TF.FilePolarity,Positive *
%FSLAX35Y35*%
%MOIN*%
%ADD12C,0.00100*%
%ADD13C,0.00300*%
%ADD11C,0.00500*%
%ADD14C,0.00600*%
%ADD15C,0.01000*%
X0Y0D02*
D02*
D11*
X45250Y22750D02*
Y70250D01*
X250*
Y22750*
X45250*
X57750Y31150D02*
X54550D01*
Y38250*
X57750*
Y31150*
X58150Y59950D02*
X54350D01*
Y69550*
X58150*
Y59950*
X61650Y34650D02*
Y37850D01*
X68750*
Y34650*
X61650*
Y39750D02*
Y42950D01*
X68750*
Y39750*
X61650*
Y56250D02*
Y59450D01*
X68750*
Y56250*
X61650*
Y61750D02*
Y64950D01*
X68750*
Y61750*
X61650*
X63150Y20950D02*
X59350D01*
Y30550*
X63150*
Y20950*
X64350Y17950D02*
X88150D01*
Y31550*
X64350*
Y17950*
X68850Y47750D02*
Y44550D01*
X61750*
Y47750*
X68850*
Y53750D02*
Y50550D01*
X61750*
Y53750*
X68850*
X86850Y35550D02*
X81550D01*
Y32950*
X86850*
X88150Y34250*
X86850Y35550*
X93850Y68750D02*
Y65550D01*
X86750*
Y68750*
X93850*
X95600Y27100D02*
Y32400D01*
X107900*
Y27100*
X95600*
Y64600D02*
Y69900D01*
X107900*
Y64600*
X95600*
X107437Y63250D02*
X104625D01*
X104000Y62937*
X103687Y62313*
Y61063*
X104000Y60437*
X104625Y60125*
X107437*
X103687Y57625D02*
Y56375D01*
Y57000D02*
X107437D01*
X106813Y57625*
X103350Y37250D02*
Y34050D01*
X96250*
Y37250*
X103350*
X104250Y27250D02*
X99250Y29750D01*
X104250Y32250*
Y64750D02*
X99250Y67250D01*
X104250Y69750*
X124600Y33100D02*
Y38400D01*
X136900*
Y33100*
X124600*
X125650Y28750D02*
Y31950D01*
X132750*
Y28750*
X125650*
X130150Y56250D02*
Y59450D01*
X137250*
Y56250*
X130150*
X133250Y33250D02*
X128250Y35750D01*
X133250Y38250*
X137350Y55250D02*
Y52050D01*
X130250*
Y55250*
X137350*
X141250Y9350D02*
X144450D01*
Y2250*
X141250*
Y9350*
X160900Y89400D02*
Y84100D01*
X148600*
Y89400*
X160900*
X168650Y82250D02*
Y85450D01*
X175750*
Y82250*
X168650*
X172650Y86750D02*
Y89950D01*
X179750*
Y86750*
X172650*
X186750Y16250D02*
X183750Y19250D01*
X189750Y16250D02*
X183750Y22250D01*
X192750Y16250D02*
X183750Y25250D01*
X195750Y16250D02*
X183750Y28250D01*
X198750Y16250D02*
X183750Y31250D01*
X200750Y16250D02*
Y65250D01*
X183750*
Y16250*
X200750*
Y77250*
X140750*
Y16250*
X200750*
Y17250D02*
X183750Y34250D01*
X200750Y20250D02*
X183750Y37250D01*
X200750Y23250D02*
X183750Y40250D01*
X200750Y26250D02*
X183750Y43250D01*
X200750Y29250D02*
X183750Y46250D01*
X200750Y32250D02*
X183750Y49250D01*
X200750Y35250D02*
X183750Y52250D01*
X200750Y38250D02*
X183750Y55250D01*
X200750Y41250D02*
X183750Y58250D01*
X200750Y44250D02*
X183750Y61250D01*
X200750Y47250D02*
X183750Y64250D01*
X200750Y50250D02*
X185750Y65250D01*
X188750*
X200750Y53250*
Y56250*
X191750Y65250*
X194750*
X200750Y59250*
Y62250*
X197750Y65250*
D02*
D12*
X99230Y19567D02*
X98020D01*
X97160Y20992*
X97097Y21100*
X97038Y21193*
X96975Y21275*
X96921Y21354*
X96867Y21417*
X96813Y21476*
X96765Y21524*
X96716Y21563*
X96623Y21622*
X96525Y21666*
X96428Y21691*
X96320Y21700*
X95939*
Y19567*
X94894*
Y24972*
X96730*
X96955Y24967*
X97165Y24947*
X97365Y24918*
X97546Y24879*
X97717Y24830*
X97868Y24767*
X98010Y24693*
X98132Y24606*
X98244Y24508*
X98337Y24400*
X98420Y24278*
X98483Y24146*
X98537Y24005*
X98571Y23854*
X98596Y23687*
X98600Y23512*
X98596Y23380*
X98581Y23248*
X98557Y23126*
X98522Y23009*
X98478Y22896*
X98425Y22784*
X98361Y22681*
X98288Y22579*
X98205Y22481*
X98112Y22394*
X98015Y22315*
X97907Y22242*
X97790Y22174*
X97668Y22115*
X97536Y22061*
X97394Y22018*
Y22003*
X97487Y21964*
X97585Y21905*
X97683Y21827*
X97785Y21734*
X97888Y21622*
X97990Y21490*
X98102Y21339*
X98210Y21173*
X99230Y19567*
X95939Y24156D02*
Y22520D01*
X96565*
X96667*
X96765Y22535*
X96857Y22555*
X96945Y22579*
X97028Y22613*
X97106Y22657*
X97180Y22706*
X97243Y22765*
X97302Y22828*
X97356Y22896*
X97400Y22970*
X97433Y23043*
X97463Y23126*
X97482Y23209*
X97497Y23292*
Y23385*
Y23478*
X97487Y23565*
X97468Y23648*
X97443Y23722*
X97409Y23790*
X97370Y23854*
X97321Y23912*
X97268Y23961*
X97209Y24010*
X97141Y24049*
X97067Y24078*
X96984Y24107*
X96892Y24127*
X96799Y24142*
X96691Y24151*
X96579Y24156*
X95939*
X104020Y19567D02*
X102775D01*
X101750Y21417*
X101726Y21471*
X101701Y21549*
X101672Y21642*
X101643Y21749*
X101628*
X101565Y21569*
X101501Y21407*
X100461Y19567*
X99206*
X100954Y22267*
X99357Y24972*
X100632*
X101501Y23268*
X101545Y23175*
X101589Y23067*
X101633Y22955*
X101672Y22833*
X101687*
X101716Y22921*
X101760Y23024*
X101809Y23146*
X101867Y23287*
X102815Y24972*
X103986*
X102341Y22291*
X104020Y19567*
X104724D02*
Y24972D01*
X106516*
X106691Y24967*
X106862Y24962*
X107028Y24947*
X107185Y24928*
X107341Y24908*
X107487Y24879*
X107634Y24845*
X107770Y24806*
X107902Y24762*
X108029Y24713*
X108146Y24659*
X108264Y24600*
X108371Y24537*
X108478Y24464*
X108576Y24391*
X108669Y24313*
X108752Y24225*
X108835Y24137*
X108913Y24039*
X108981Y23941*
X109045Y23834*
X109104Y23726*
X109157Y23609*
X109206Y23487*
X109245Y23360*
X109284Y23228*
X109313Y23092*
X109338Y22950*
X109357Y22804*
X109372Y22652*
X109382Y22496*
X109387Y22335*
X109382Y22179*
X109372Y22027*
X109357Y21881*
X109333Y21739*
X109304Y21598*
X109270Y21461*
X109230Y21329*
X109181Y21202*
X109128Y21080*
X109069Y20958*
X109001Y20846*
X108928Y20733*
X108850Y20626*
X108767Y20519*
X108674Y20421*
X108576Y20323*
X108474Y20230*
X108366Y20148*
X108254Y20065*
X108142Y19991*
X108024Y19923*
X107902Y19859*
X107780Y19806*
X107648Y19757*
X107517Y19713*
X107380Y19674*
X107243Y19640*
X107102Y19615*
X106955Y19591*
X106804Y19576*
X106648Y19571*
X106491Y19567*
X104724*
X105769Y24102D02*
Y20431D01*
X106428*
X106643Y20441*
X106843Y20465*
X107028Y20504*
X107204Y20557*
X107370Y20631*
X107522Y20719*
X107663Y20821*
X107790Y20939*
X107907Y21070*
X108005Y21212*
X108093Y21368*
X108161Y21534*
X108215Y21715*
X108254Y21905*
X108274Y22106*
X108283Y22320*
X108274Y22530*
X108254Y22726*
X108215Y22911*
X108161Y23082*
X108093Y23238*
X108005Y23385*
X107907Y23522*
X107790Y23644*
X107663Y23751*
X107522Y23844*
X107370Y23922*
X107209Y23985*
X107033Y24034*
X106843Y24073*
X106648Y24093*
X106437Y24102*
X105769*
X94894Y19624D02*
X95939D01*
X97985D02*
X99194D01*
X99243D02*
X100493D01*
X102743D02*
X103985D01*
X104724D02*
X107152D01*
X94894Y19718D02*
X95939D01*
X97928D02*
X99134D01*
X99304D02*
X100546D01*
X102691D02*
X103927D01*
X104724D02*
X107531D01*
X94894Y19811D02*
X95939D01*
X97872D02*
X99075D01*
X99365D02*
X100599D01*
X102639D02*
X103870D01*
X104724D02*
X107794D01*
X94894Y19905D02*
X95939D01*
X97816D02*
X99015D01*
X99425D02*
X100652D01*
X102588D02*
X103812D01*
X104724D02*
X107990D01*
X94894Y19999D02*
X95939D01*
X97759D02*
X98956D01*
X99486D02*
X100705D01*
X102536D02*
X103754D01*
X104724D02*
X108153D01*
X94894Y20093D02*
X95939D01*
X97703D02*
X98896D01*
X99546D02*
X100758D01*
X102484D02*
X103696D01*
X104724D02*
X108292D01*
X94894Y20186D02*
X95939D01*
X97646D02*
X98837D01*
X99607D02*
X100811D01*
X102432D02*
X103639D01*
X104724D02*
X108416D01*
X94894Y20280D02*
X95939D01*
X97590D02*
X98777D01*
X99668D02*
X100864D01*
X102380D02*
X103581D01*
X104724D02*
X108528D01*
X94894Y20374D02*
X95939D01*
X97533D02*
X98718D01*
X99728D02*
X100917D01*
X102328D02*
X103523D01*
X104724D02*
X108627D01*
X94894Y20467D02*
X95939D01*
X97477D02*
X98658D01*
X99789D02*
X100970D01*
X102276D02*
X103465D01*
X104724D02*
X105769D01*
X106854D02*
X108718D01*
X94894Y20561D02*
X95939D01*
X97420D02*
X98598D01*
X99850D02*
X101023D01*
X102224D02*
X103407D01*
X104724D02*
X105769D01*
X107212D02*
X108799D01*
X94894Y20655D02*
X95939D01*
X97364D02*
X98539D01*
X99910D02*
X101076D01*
X102172D02*
X103350D01*
X104724D02*
X105769D01*
X107411D02*
X108870D01*
X94894Y20748D02*
X95939D01*
X97307D02*
X98480D01*
X99971D02*
X101129D01*
X102120D02*
X103292D01*
X104724D02*
X105769D01*
X107563D02*
X108937D01*
X94894Y20842D02*
X95939D01*
X97251D02*
X98420D01*
X100032D02*
X101181D01*
X102069D02*
X103234D01*
X104724D02*
X105769D01*
X107685D02*
X108998D01*
X94894Y20936D02*
X95939D01*
X97194D02*
X98360D01*
X100093D02*
X101235D01*
X102017D02*
X103176D01*
X104724D02*
X105769D01*
X107787D02*
X109056D01*
X94894Y21030D02*
X95939D01*
X97138D02*
X98301D01*
X100153D02*
X101287D01*
X101965D02*
X103119D01*
X104724D02*
X105769D01*
X107871D02*
X109104D01*
X94894Y21123D02*
X95939D01*
X97082D02*
X98241D01*
X100214D02*
X101341D01*
X101913D02*
X103061D01*
X104724D02*
X105769D01*
X107944D02*
X109147D01*
X94894Y21217D02*
X95939D01*
X97019D02*
X98181D01*
X100274D02*
X101393D01*
X101861D02*
X103003D01*
X104724D02*
X105769D01*
X108007D02*
X109187D01*
X94894Y21311D02*
X95939D01*
X96950D02*
X98121D01*
X100335D02*
X101446D01*
X101809D02*
X102945D01*
X104724D02*
X105769D01*
X108061D02*
X109223D01*
X94894Y21404D02*
X95939D01*
X96878D02*
X98054D01*
X100396D02*
X101499D01*
X101757D02*
X102887D01*
X104724D02*
X105769D01*
X108108D02*
X109253D01*
X94894Y21498D02*
X95939D01*
X96791D02*
X97984D01*
X100456D02*
X101537D01*
X101717D02*
X102830D01*
X104724D02*
X105769D01*
X108146D02*
X109279D01*
X94894Y21592D02*
X95939D01*
X96671D02*
X97911D01*
X100517D02*
X101573D01*
X101688D02*
X102772D01*
X104724D02*
X105769D01*
X108178D02*
X109302D01*
X94894Y21685D02*
X95939D01*
X96448D02*
X97830D01*
X100578D02*
X101606D01*
X101660D02*
X102714D01*
X104724D02*
X105769D01*
X108206D02*
X109322D01*
X94894Y21779D02*
X97735D01*
X100638D02*
X102656D01*
X104724D02*
X105769D01*
X108228D02*
X109340D01*
X94894Y21873D02*
X97626D01*
X100699D02*
X102599D01*
X104724D02*
X105769D01*
X108247D02*
X109356D01*
X94894Y21967D02*
X97481D01*
X100760D02*
X102541D01*
X104724D02*
X105769D01*
X108260D02*
X109366D01*
X94894Y22060D02*
X97536D01*
X100820D02*
X102483D01*
X104724D02*
X105769D01*
X108269D02*
X109374D01*
X94894Y22154D02*
X97748D01*
X100881D02*
X102426D01*
X104724D02*
X105769D01*
X108276D02*
X109380D01*
X94894Y22248D02*
X97915D01*
X100942D02*
X102368D01*
X104724D02*
X105769D01*
X108280D02*
X109384D01*
X94894Y22341D02*
X98047D01*
X100910D02*
X102372D01*
X104724D02*
X105769D01*
X108282D02*
X109387D01*
X94894Y22435D02*
X98156D01*
X100854D02*
X102430D01*
X104724D02*
X105769D01*
X108278D02*
X109384D01*
X94894Y22529D02*
X95939D01*
X96722D02*
X98245D01*
X100799D02*
X102487D01*
X104724D02*
X105769D01*
X108274D02*
X109380D01*
X94894Y22622D02*
X95939D01*
X97044D02*
X98319D01*
X100744D02*
X102544D01*
X104724D02*
X105769D01*
X108264D02*
X109374D01*
X94894Y22716D02*
X95939D01*
X97191D02*
X98383D01*
X100689D02*
X102602D01*
X104724D02*
X105769D01*
X108255D02*
X109366D01*
X94894Y22810D02*
X95939D01*
X97285D02*
X98437D01*
X100633D02*
X102659D01*
X104724D02*
X105769D01*
X108236D02*
X109357D01*
X94894Y22904D02*
X95939D01*
X97360D02*
X98481D01*
X100578D02*
X101649D01*
X101710D02*
X102717D01*
X104724D02*
X105769D01*
X108217D02*
X109344D01*
X94894Y22997D02*
X95939D01*
X97412D02*
X98518D01*
X100523D02*
X101616D01*
X101748D02*
X102774D01*
X104724D02*
X105769D01*
X108188D02*
X109330D01*
X94894Y23091D02*
X95939D01*
X97450D02*
X98546D01*
X100467D02*
X101579D01*
X101787D02*
X102832D01*
X104724D02*
X105769D01*
X108157D02*
X109313D01*
X94894Y23185D02*
X95939D01*
X97477D02*
X98569D01*
X100412D02*
X101540D01*
X101825D02*
X102889D01*
X104724D02*
X105769D01*
X108116D02*
X109294D01*
X94894Y23278D02*
X95939D01*
X97495D02*
X98585D01*
X100357D02*
X101495D01*
X101864D02*
X102947D01*
X104724D02*
X105769D01*
X108069D02*
X109269D01*
X94894Y23372D02*
X95939D01*
X97497D02*
X98595D01*
X100302D02*
X101448D01*
X101915D02*
X103004D01*
X104724D02*
X105769D01*
X108012D02*
X109242D01*
X94894Y23466D02*
X95939D01*
X97497D02*
X98599D01*
X100246D02*
X101400D01*
X101968D02*
X103062D01*
X104724D02*
X105769D01*
X107947D02*
X109213D01*
X94894Y23559D02*
X95939D01*
X97488D02*
X98599D01*
X100191D02*
X101352D01*
X102020D02*
X103119D01*
X104724D02*
X105769D01*
X107871D02*
X109177D01*
X94894Y23653D02*
X95939D01*
X97466D02*
X98596D01*
X100135D02*
X101304D01*
X102073D02*
X103177D01*
X104724D02*
X105769D01*
X107779D02*
X109137D01*
X94894Y23747D02*
X95939D01*
X97431D02*
X98587D01*
X100080D02*
X101256D01*
X102126D02*
X103235D01*
X104724D02*
X105769D01*
X107668D02*
X109093D01*
X94894Y23841D02*
X95939D01*
X97378D02*
X98573D01*
X100025D02*
X101209D01*
X102179D02*
X103292D01*
X104724D02*
X105769D01*
X107526D02*
X109041D01*
X94894Y23934D02*
X95939D01*
X97297D02*
X98553D01*
X99970D02*
X101161D01*
X102231D02*
X103350D01*
X104724D02*
X105769D01*
X107339D02*
X108986D01*
X94894Y24028D02*
X95939D01*
X97177D02*
X98528D01*
X99915D02*
X101113D01*
X102284D02*
X103407D01*
X104724D02*
X105769D01*
X107056D02*
X108921D01*
X94894Y24122D02*
X95939D01*
X96916D02*
X98493D01*
X99859D02*
X101065D01*
X102337D02*
X103465D01*
X104724D02*
X108847D01*
X94894Y24215D02*
X98450D01*
X99804D02*
X101018D01*
X102389D02*
X103522D01*
X104724D02*
X108761D01*
X94894Y24309D02*
X98399D01*
X99748D02*
X100970D01*
X102442D02*
X103580D01*
X104724D02*
X108672D01*
X94894Y24403D02*
X98335D01*
X99693D02*
X100922D01*
X102495D02*
X103637D01*
X104724D02*
X108560D01*
X94894Y24496D02*
X98254D01*
X99638D02*
X100874D01*
X102547D02*
X103694D01*
X104724D02*
X108431D01*
X94894Y24590D02*
X98150D01*
X99583D02*
X100826D01*
X102600D02*
X103752D01*
X104724D02*
X108281D01*
X94894Y24684D02*
X98023D01*
X99527D02*
X100779D01*
X102653D02*
X103809D01*
X104724D02*
X108093D01*
X94894Y24778D02*
X97842D01*
X99472D02*
X100731D01*
X102706D02*
X103867D01*
X104724D02*
X107855D01*
X94894Y24871D02*
X97572D01*
X99417D02*
X100683D01*
X102758D02*
X103924D01*
X104724D02*
X107520D01*
X94894Y24965D02*
X96976D01*
X99361D02*
X100635D01*
X102811D02*
X103982D01*
X104724D02*
X106757D01*
X99013Y76602D02*
X97465D01*
Y72067*
X96415*
Y76602*
X94877*
Y77472*
X99013*
Y76602*
X103983Y72067D02*
X102738D01*
X101713Y73917*
X101689Y73971*
X101664Y74049*
X101635Y74142*
X101606Y74249*
X101591*
X101527Y74069*
X101464Y73907*
X100424Y72067*
X99169*
X100917Y74767*
X99320Y77472*
X100595*
X101464Y75768*
X101508Y75675*
X101552Y75567*
X101596Y75455*
X101635Y75333*
X101650*
X101679Y75421*
X101723Y75524*
X101772Y75646*
X101830Y75787*
X102777Y77472*
X103949*
X102304Y74791*
X103983Y72067*
X104687D02*
Y77472D01*
X106478*
X106654Y77467*
X106825Y77462*
X106991Y77447*
X107148Y77428*
X107304Y77408*
X107450Y77379*
X107597Y77345*
X107733Y77306*
X107865Y77262*
X107992Y77213*
X108109Y77159*
X108226Y77100*
X108334Y77037*
X108441Y76964*
X108539Y76891*
X108632Y76813*
X108715Y76725*
X108798Y76637*
X108876Y76539*
X108944Y76441*
X109008Y76334*
X109067Y76226*
X109120Y76109*
X109169Y75987*
X109208Y75860*
X109247Y75728*
X109276Y75592*
X109301Y75450*
X109320Y75304*
X109335Y75152*
X109345Y74996*
X109350Y74835*
X109345Y74679*
X109335Y74527*
X109320Y74381*
X109296Y74239*
X109267Y74098*
X109232Y73961*
X109193Y73829*
X109144Y73702*
X109091Y73580*
X109032Y73458*
X108964Y73346*
X108891Y73233*
X108813Y73126*
X108730Y73019*
X108637Y72921*
X108539Y72823*
X108437Y72730*
X108329Y72648*
X108217Y72565*
X108104Y72491*
X107987Y72423*
X107865Y72359*
X107743Y72306*
X107611Y72257*
X107480Y72213*
X107343Y72174*
X107206Y72140*
X107065Y72115*
X106918Y72091*
X106767Y72076*
X106610Y72071*
X106454Y72067*
X104687*
X105731Y76602D02*
Y72931D01*
X106391*
X106606Y72941*
X106806Y72965*
X106991Y73004*
X107167Y73057*
X107333Y73131*
X107484Y73219*
X107626Y73321*
X107753Y73439*
X107870Y73570*
X107968Y73712*
X108056Y73868*
X108124Y74034*
X108178Y74215*
X108217Y74405*
X108236Y74606*
X108246Y74820*
X108236Y75030*
X108217Y75226*
X108178Y75411*
X108124Y75582*
X108056Y75738*
X107968Y75885*
X107870Y76022*
X107753Y76144*
X107626Y76251*
X107484Y76344*
X107333Y76422*
X107172Y76485*
X106996Y76534*
X106806Y76573*
X106610Y76593*
X106400Y76602*
X105731*
X96415Y72124D02*
X97465D01*
X99206D02*
X100456D01*
X102706D02*
X103948D01*
X104687D02*
X107115D01*
X96415Y72218D02*
X97465D01*
X99267D02*
X100509D01*
X102654D02*
X103890D01*
X104687D02*
X107494D01*
X96415Y72311D02*
X97465D01*
X99328D02*
X100562D01*
X102602D02*
X103832D01*
X104687D02*
X107757D01*
X96415Y72405D02*
X97465D01*
X99388D02*
X100615D01*
X102551D02*
X103775D01*
X104687D02*
X107953D01*
X96415Y72499D02*
X97465D01*
X99449D02*
X100668D01*
X102499D02*
X103717D01*
X104687D02*
X108116D01*
X96415Y72593D02*
X97465D01*
X99509D02*
X100721D01*
X102447D02*
X103659D01*
X104687D02*
X108255D01*
X96415Y72686D02*
X97465D01*
X99570D02*
X100774D01*
X102395D02*
X103601D01*
X104687D02*
X108379D01*
X96415Y72780D02*
X97465D01*
X99631D02*
X100827D01*
X102343D02*
X103544D01*
X104687D02*
X108491D01*
X96415Y72874D02*
X97465D01*
X99691D02*
X100880D01*
X102291D02*
X103486D01*
X104687D02*
X108589D01*
X96415Y72967D02*
X97465D01*
X99752D02*
X100933D01*
X102239D02*
X103428D01*
X104687D02*
X105731D01*
X106817D02*
X108681D01*
X96415Y73061D02*
X97465D01*
X99813D02*
X100986D01*
X102187D02*
X103370D01*
X104687D02*
X105731D01*
X107175D02*
X108762D01*
X96415Y73155D02*
X97465D01*
X99873D02*
X101039D01*
X102135D02*
X103313D01*
X104687D02*
X105731D01*
X107374D02*
X108833D01*
X96415Y73248D02*
X97465D01*
X99934D02*
X101092D01*
X102083D02*
X103255D01*
X104687D02*
X105731D01*
X107525D02*
X108900D01*
X96415Y73342D02*
X97465D01*
X99995D02*
X101144D01*
X102031D02*
X103197D01*
X104687D02*
X105731D01*
X107648D02*
X108961D01*
X96415Y73436D02*
X97465D01*
X100056D02*
X101198D01*
X101980D02*
X103139D01*
X104687D02*
X105731D01*
X107750D02*
X109019D01*
X96415Y73530D02*
X97465D01*
X100116D02*
X101250D01*
X101928D02*
X103081D01*
X104687D02*
X105731D01*
X107833D02*
X109067D01*
X96415Y73623D02*
X97465D01*
X100177D02*
X101304D01*
X101876D02*
X103024D01*
X104687D02*
X105731D01*
X107907D02*
X109110D01*
X96415Y73717D02*
X97465D01*
X100237D02*
X101356D01*
X101824D02*
X102966D01*
X104687D02*
X105731D01*
X107970D02*
X109150D01*
X96415Y73811D02*
X97465D01*
X100298D02*
X101409D01*
X101772D02*
X102908D01*
X104687D02*
X105731D01*
X108023D02*
X109186D01*
X96415Y73904D02*
X97465D01*
X100359D02*
X101462D01*
X101720D02*
X102850D01*
X104687D02*
X105731D01*
X108070D02*
X109215D01*
X96415Y73998D02*
X97465D01*
X100419D02*
X101500D01*
X101680D02*
X102793D01*
X104687D02*
X105731D01*
X108109D02*
X109242D01*
X96415Y74092D02*
X97465D01*
X100480D02*
X101535D01*
X101650D02*
X102735D01*
X104687D02*
X105731D01*
X108141D02*
X109265D01*
X96415Y74185D02*
X97465D01*
X100541D02*
X101569D01*
X101623D02*
X102677D01*
X104687D02*
X105731D01*
X108169D02*
X109285D01*
X96415Y74279D02*
X97465D01*
X100601D02*
X102619D01*
X104687D02*
X105731D01*
X108191D02*
X109303D01*
X96415Y74373D02*
X97465D01*
X100662D02*
X102561D01*
X104687D02*
X105731D01*
X108210D02*
X109319D01*
X96415Y74467D02*
X97465D01*
X100723D02*
X102504D01*
X104687D02*
X105731D01*
X108223D02*
X109329D01*
X96415Y74560D02*
X97465D01*
X100783D02*
X102446D01*
X104687D02*
X105731D01*
X108232D02*
X109337D01*
X96415Y74654D02*
X97465D01*
X100844D02*
X102388D01*
X104687D02*
X105731D01*
X108239D02*
X109343D01*
X96415Y74748D02*
X97465D01*
X100905D02*
X102330D01*
X104687D02*
X105731D01*
X108243D02*
X109347D01*
X96415Y74841D02*
X97465D01*
X100873D02*
X102335D01*
X104687D02*
X105731D01*
X108245D02*
X109350D01*
X96415Y74935D02*
X97465D01*
X100817D02*
X102392D01*
X104687D02*
X105731D01*
X108241D02*
X109347D01*
X96415Y75029D02*
X97465D01*
X100762D02*
X102450D01*
X104687D02*
X105731D01*
X108236D02*
X109343D01*
X96415Y75122D02*
X97465D01*
X100707D02*
X102507D01*
X104687D02*
X105731D01*
X108227D02*
X109337D01*
X96415Y75216D02*
X97465D01*
X100652D02*
X102565D01*
X104687D02*
X105731D01*
X108218D02*
X109329D01*
X96415Y75310D02*
X97465D01*
X100596D02*
X102622D01*
X104687D02*
X105731D01*
X108199D02*
X109320D01*
X96415Y75404D02*
X97465D01*
X100541D02*
X101612D01*
X101673D02*
X102680D01*
X104687D02*
X105731D01*
X108179D02*
X109307D01*
X96415Y75497D02*
X97465D01*
X100486D02*
X101579D01*
X101711D02*
X102737D01*
X104687D02*
X105731D01*
X108150D02*
X109293D01*
X96415Y75591D02*
X97465D01*
X100430D02*
X101542D01*
X101750D02*
X102794D01*
X104687D02*
X105731D01*
X108120D02*
X109276D01*
X96415Y75685D02*
X97465D01*
X100375D02*
X101503D01*
X101788D02*
X102852D01*
X104687D02*
X105731D01*
X108079D02*
X109257D01*
X96415Y75778D02*
X97465D01*
X100320D02*
X101458D01*
X101826D02*
X102910D01*
X104687D02*
X105731D01*
X108031D02*
X109232D01*
X96415Y75872D02*
X97465D01*
X100265D02*
X101411D01*
X101878D02*
X102967D01*
X104687D02*
X105731D01*
X107975D02*
X109204D01*
X96415Y75966D02*
X97465D01*
X100209D02*
X101363D01*
X101930D02*
X103025D01*
X104687D02*
X105731D01*
X107910D02*
X109176D01*
X96415Y76059D02*
X97465D01*
X100154D02*
X101315D01*
X101983D02*
X103082D01*
X104687D02*
X105731D01*
X107834D02*
X109140D01*
X96415Y76153D02*
X97465D01*
X100098D02*
X101267D01*
X102036D02*
X103140D01*
X104687D02*
X105731D01*
X107742D02*
X109100D01*
X96415Y76247D02*
X97465D01*
X100043D02*
X101219D01*
X102089D02*
X103197D01*
X104687D02*
X105731D01*
X107631D02*
X109056D01*
X96415Y76341D02*
X97465D01*
X99988D02*
X101172D01*
X102141D02*
X103255D01*
X104687D02*
X105731D01*
X107489D02*
X109004D01*
X96415Y76434D02*
X97465D01*
X99933D02*
X101124D01*
X102194D02*
X103312D01*
X104687D02*
X105731D01*
X107302D02*
X108949D01*
X96415Y76528D02*
X97465D01*
X99878D02*
X101076D01*
X102246D02*
X103370D01*
X104687D02*
X105731D01*
X107019D02*
X108884D01*
X94877Y76622D02*
X99013D01*
X99822D02*
X101028D01*
X102299D02*
X103428D01*
X104687D02*
X108810D01*
X94877Y76715D02*
X99013D01*
X99767D02*
X100981D01*
X102352D02*
X103485D01*
X104687D02*
X108724D01*
X94877Y76809D02*
X99013D01*
X99711D02*
X100933D01*
X102405D02*
X103543D01*
X104687D02*
X108635D01*
X94877Y76903D02*
X99013D01*
X99656D02*
X100885D01*
X102457D02*
X103600D01*
X104687D02*
X108523D01*
X94877Y76996D02*
X99013D01*
X99601D02*
X100837D01*
X102510D02*
X103657D01*
X104687D02*
X108393D01*
X94877Y77090D02*
X99013D01*
X99546D02*
X100789D01*
X102563D02*
X103715D01*
X104687D02*
X108244D01*
X94877Y77184D02*
X99013D01*
X99490D02*
X100742D01*
X102615D02*
X103772D01*
X104687D02*
X108056D01*
X94877Y77278D02*
X99013D01*
X99435D02*
X100694D01*
X102668D02*
X103830D01*
X104687D02*
X107818D01*
X94877Y77371D02*
X99013D01*
X99380D02*
X100646D01*
X102721D02*
X103887D01*
X104687D02*
X107482D01*
X94877Y77465D02*
X99013D01*
X99324D02*
X100598D01*
X102773D02*
X103945D01*
X104687D02*
X106720D01*
X120925Y40967D02*
X120915Y40708D01*
X120886Y40464*
X120842Y40234*
X120778Y40020*
X120695Y39824*
X120593Y39639*
X120471Y39473*
X120334Y39321*
X120178Y39189*
X120007Y39072*
X119817Y38975*
X119611Y38896*
X119387Y38833*
X119148Y38789*
X118894Y38760*
X118620Y38750*
X118435Y38755*
X118254Y38770*
X118088Y38784*
X117927Y38813*
X117775Y38848*
X117634Y38887*
X117502Y38935*
X117380Y38989*
Y39878*
X117531Y39800*
X117683Y39726*
X117834Y39668*
X117985Y39619*
X118137Y39580*
X118288Y39551*
X118439Y39536*
X118591Y39531*
X118747Y39536*
X118889Y39551*
X119020Y39575*
X119148Y39614*
X119265Y39658*
X119372Y39717*
X119470Y39785*
X119563Y39863*
X119641Y39951*
X119709Y40049*
X119768Y40151*
X119817Y40264*
X119856Y40386*
X119885Y40518*
X119900Y40659*
X119904Y40811*
Y41152*
X119890*
X119836Y41069*
X119777Y40991*
X119719Y40918*
X119655Y40854*
X119587Y40791*
X119519Y40737*
X119445Y40683*
X119372Y40640*
X119294Y40600*
X119211Y40567*
X119123Y40537*
X119035Y40513*
X118947Y40493*
X118850Y40483*
X118752Y40474*
X118654Y40469*
X118478Y40478*
X118307Y40503*
X118151Y40542*
X118000Y40600*
X117863Y40674*
X117731Y40762*
X117604Y40869*
X117492Y40986*
X117390Y41123*
X117297Y41270*
X117224Y41426*
X117160Y41597*
X117111Y41777*
X117077Y41968*
X117057Y42168*
X117053Y42383*
X117057Y42622*
X117082Y42847*
X117121Y43057*
X117170Y43257*
X117238Y43447*
X117321Y43623*
X117419Y43784*
X117536Y43935*
X117658Y44072*
X117795Y44189*
X117941Y44292*
X118093Y44370*
X118259Y44433*
X118430Y44482*
X118615Y44507*
X118806Y44517*
X118981Y44507*
X119143Y44482*
X119294Y44439*
X119435Y44375*
X119563Y44297*
X119685Y44199*
X119792Y44082*
X119890Y43950*
X119904*
Y44424*
X120925*
Y40967*
X119914Y42769D02*
X119909Y42866D01*
X119900Y42959*
X119880Y43047*
X119856Y43135*
X119821Y43218*
X119777Y43296*
X119728Y43369*
X119670Y43443*
X119606Y43506*
X119538Y43565*
X119465Y43608*
X119392Y43648*
X119309Y43681*
X119226Y43701*
X119138Y43716*
X119045Y43721*
X118937Y43716*
X118835Y43696*
X118742Y43672*
X118650Y43633*
X118567Y43584*
X118488Y43525*
X118415Y43457*
X118347Y43379*
X118283Y43291*
X118234Y43189*
X118185Y43086*
X118151Y42969*
X118122Y42847*
X118102Y42715*
X118093Y42573*
X118088Y42422*
X118093Y42295*
X118102Y42173*
X118122Y42056*
X118146Y41948*
X118181Y41846*
X118225Y41753*
X118274Y41665*
X118332Y41582*
X118396Y41509*
X118464Y41445*
X118542Y41392*
X118620Y41348*
X118703Y41313*
X118791Y41289*
X118889Y41274*
X118986Y41270*
X119089Y41274*
X119181Y41289*
X119274Y41313*
X119362Y41348*
X119445Y41392*
X119519Y41445*
X119592Y41509*
X119660Y41582*
X119719Y41665*
X119772Y41748*
X119817Y41841*
X119850Y41939*
X119880Y42041*
X119900Y42153*
X119909Y42266*
X119914Y42388*
Y42769*
X123020Y41045D02*
Y38789D01*
X121994*
Y44424*
X123020*
Y43813*
X123029*
X123088Y43901*
X123146Y43980*
X123210Y44053*
X123278Y44121*
X123347Y44185*
X123415Y44243*
X123493Y44297*
X123571Y44341*
X123650Y44380*
X123737Y44419*
X123820Y44448*
X123913Y44473*
X124006Y44492*
X124099Y44507*
X124196Y44512*
X124299Y44517*
X124475Y44507*
X124646Y44482*
X124802Y44443*
X124953Y44390*
X125090Y44317*
X125222Y44228*
X125339Y44126*
X125451Y44004*
X125549Y43872*
X125632Y43726*
X125705Y43569*
X125764Y43398*
X125813Y43218*
X125842Y43027*
X125861Y42822*
X125871Y42602*
X125861Y42368*
X125842Y42148*
X125803Y41933*
X125749Y41733*
X125685Y41548*
X125602Y41372*
X125505Y41206*
X125393Y41055*
X125266Y40918*
X125134Y40801*
X124987Y40698*
X124836Y40615*
X124670Y40552*
X124499Y40508*
X124313Y40478*
X124123Y40469*
X123947Y40478*
X123786Y40508*
X123635Y40552*
X123493Y40615*
X123361Y40698*
X123239Y40796*
X123127Y40913*
X123029Y41045*
X123020*
X123005Y42246D02*
Y42144D01*
X123020Y42041*
X123039Y41948*
X123063Y41860*
X123098Y41777*
X123142Y41694*
X123191Y41621*
X123244Y41548*
X123307Y41484*
X123376Y41426*
X123444Y41377*
X123522Y41338*
X123600Y41309*
X123683Y41289*
X123772Y41274*
X123864Y41270*
X123976Y41274*
X124079Y41294*
X124177Y41319*
X124265Y41357*
X124348Y41406*
X124426Y41465*
X124499Y41538*
X124567Y41621*
X124626Y41709*
X124680Y41811*
X124724Y41919*
X124758Y42041*
X124782Y42168*
X124807Y42300*
X124817Y42446*
X124821Y42602*
X124817Y42734*
X124807Y42861*
X124787Y42978*
X124763Y43091*
X124733Y43189*
X124694Y43281*
X124650Y43364*
X124597Y43437*
X124538Y43506*
X124475Y43565*
X124401Y43608*
X124323Y43648*
X124235Y43681*
X124143Y43701*
X124045Y43716*
X123937Y43721*
X123835Y43716*
X123737Y43701*
X123644Y43677*
X123557Y43643*
X123474Y43599*
X123400Y43545*
X123327Y43481*
X123259Y43408*
X123200Y43325*
X123146Y43242*
X123102Y43150*
X123069Y43057*
X123039Y42954*
X123020Y42847*
X123005Y42739*
Y42622*
Y42246*
X126608Y45693D02*
X126613Y45752D01*
X126618Y45806*
X126633Y45859*
X126652Y45913*
X126677Y45957*
X126701Y46006*
X126735Y46045*
X126774Y46089*
X126819Y46123*
X126867Y46157*
X126916Y46187*
X126970Y46206*
X127024Y46226*
X127082Y46235*
X127146Y46245*
X127209*
X127331Y46235*
X127443Y46206*
X127546Y46157*
X127639Y46089*
X127678Y46050*
X127712Y46006*
X127741Y45962*
X127766Y45913*
X127785Y45864*
X127800Y45811*
X127809Y45752*
Y45693*
Y45635*
X127800Y45581*
X127785Y45527*
X127766Y45478*
X127746Y45430*
X127717Y45381*
X127678Y45337*
X127639Y45298*
X127595Y45264*
X127551Y45230*
X127497Y45200*
X127448Y45181*
X127390Y45161*
X127331Y45151*
X127272Y45142*
X127209*
X127146*
X127082Y45151*
X127024Y45166*
X126970Y45181*
X126916Y45205*
X126867Y45230*
X126823Y45264*
X126779Y45303*
X126740Y45342*
X126706Y45386*
X126677Y45435*
X126652Y45483*
X126633Y45532*
X126618Y45586*
X126613Y45640*
X126608Y45693*
X126691Y40567D02*
Y44424D01*
X127712*
Y40567*
X126691*
X128537Y42471D02*
X128542Y42700D01*
X128571Y42920*
X128615Y43125*
X128674Y43320*
X128752Y43501*
X128850Y43667*
X128962Y43823*
X129094Y43970*
X129240Y44097*
X129396Y44209*
X129567Y44302*
X129753Y44380*
X129948Y44439*
X130153Y44482*
X130373Y44507*
X130607Y44517*
X130832Y44507*
X131042Y44482*
X131242Y44439*
X131433Y44380*
X131608Y44307*
X131770Y44214*
X131921Y44106*
X132063Y43980*
X132189Y43838*
X132297Y43687*
X132390Y43525*
X132463Y43350*
X132522Y43164*
X132565Y42964*
X132590Y42759*
X132595Y42539*
X132590Y42309*
X132561Y42090*
X132517Y41885*
X132458Y41689*
X132380Y41509*
X132287Y41338*
X132175Y41181*
X132043Y41035*
X131901Y40903*
X131745Y40786*
X131574Y40689*
X131394Y40610*
X131198Y40552*
X130993Y40508*
X130778Y40478*
X130549Y40469*
X130324Y40478*
X130109Y40503*
X129909Y40547*
X129719Y40606*
X129538Y40683*
X129372Y40776*
X129221Y40884*
X129079Y41011*
X128952Y41152*
X128840Y41309*
X128747Y41470*
X128669Y41646*
X128610Y41836*
X128571Y42036*
X128542Y42246*
X128537Y42471*
X129572Y42485D02*
X129577Y42339D01*
X129587Y42202*
X129606Y42075*
X129636Y41953*
X129670Y41846*
X129714Y41748*
X129763Y41655*
X129821Y41577*
X129890Y41504*
X129968Y41441*
X130046Y41392*
X130139Y41348*
X130236Y41313*
X130344Y41289*
X130456Y41274*
X130583Y41270*
X130700Y41274*
X130807Y41289*
X130910Y41313*
X131008Y41348*
X131096Y41392*
X131174Y41445*
X131247Y41509*
X131311Y41582*
X131369Y41665*
X131418Y41758*
X131457Y41860*
X131491Y41973*
X131520Y42095*
X131540Y42222*
X131550Y42363*
X131555Y42515*
X131550Y42661*
X131540Y42798*
X131520Y42925*
X131491Y43042*
X131457Y43150*
X131418Y43247*
X131369Y43340*
X131311Y43418*
X131247Y43491*
X131174Y43550*
X131091Y43604*
X131003Y43643*
X130910Y43677*
X130807Y43701*
X130695Y43716*
X130578Y43721*
X130461Y43716*
X130354Y43701*
X130251Y43672*
X130153Y43638*
X130065Y43594*
X129982Y43535*
X129904Y43467*
X129836Y43394*
X129772Y43306*
X129719Y43213*
X129675Y43110*
X129636Y43003*
X129606Y42886*
X129587Y42759*
X129577Y42627*
X129572Y42485*
X136765Y40567D02*
X133293D01*
Y41382*
X134850Y42896*
X134978Y43022*
X135095Y43144*
X135202Y43257*
X135300Y43364*
X135388Y43467*
X135461Y43565*
X135524Y43657*
X135578Y43740*
X135627Y43823*
X135666Y43906*
X135700Y43989*
X135725Y44072*
X135749Y44160*
X135764Y44243*
X135774Y44331*
Y44419*
Y44522*
X135759Y44609*
X135744Y44697*
X135720Y44775*
X135691Y44849*
X135651Y44917*
X135607Y44976*
X135559Y45029*
X135500Y45078*
X135437Y45117*
X135363Y45151*
X135285Y45181*
X135202Y45205*
X135109Y45220*
X135012Y45230*
X134904Y45234*
X134728Y45225*
X134557Y45195*
X134387Y45151*
X134216Y45088*
X134050Y45010*
X133884Y44912*
X133718Y44795*
X133557Y44658*
Y45591*
X133728Y45703*
X133908Y45796*
X134094Y45879*
X134284Y45943*
X134484Y45991*
X134685Y46030*
X134894Y46050*
X135109Y46059*
X135300Y46055*
X135480Y46035*
X135646Y46001*
X135807Y45957*
X135959Y45903*
X136096Y45830*
X136228Y45752*
X136350Y45654*
X136457Y45552*
X136550Y45435*
X136628Y45313*
X136696Y45176*
X136745Y45034*
X136779Y44883*
X136804Y44717*
X136809Y44546*
X136804Y44429*
X136794Y44307*
X136770Y44185*
X136735Y44063*
X136696Y43941*
X136643Y43813*
X136584Y43687*
X136516Y43559*
X136437Y43433*
X136345Y43301*
X136252Y43174*
X136144Y43042*
X136027Y42910*
X135900Y42774*
X135769Y42642*
X135622Y42505*
X134470Y41445*
Y41431*
X136765*
Y40567*
X117793Y38844D02*
X119424D01*
X121994D02*
X123020D01*
X117498Y38937D02*
X119719D01*
X121994D02*
X123020D01*
X117380Y39031D02*
X119926D01*
X121994D02*
X123020D01*
X117380Y39125D02*
X120083D01*
X121994D02*
X123020D01*
X117380Y39219D02*
X120212D01*
X121994D02*
X123020D01*
X117380Y39312D02*
X120323D01*
X121994D02*
X123020D01*
X117380Y39406D02*
X120410D01*
X121994D02*
X123020D01*
X117380Y39500D02*
X120491D01*
X121994D02*
X123020D01*
X117380Y39593D02*
X118085D01*
X119080D02*
X120559D01*
X121994D02*
X123020D01*
X117380Y39687D02*
X117785D01*
X119317D02*
X120620D01*
X121994D02*
X123020D01*
X117380Y39781D02*
X117571D01*
X119463D02*
X120671D01*
X121994D02*
X123020D01*
X117380Y39874D02*
X117387D01*
X119572D02*
X120717D01*
X121994D02*
X123020D01*
X119652Y39968D02*
X120756D01*
X121994D02*
X123020D01*
X119717Y40062D02*
X120791D01*
X121994D02*
X123020D01*
X119770Y40156D02*
X120819D01*
X121994D02*
X123020D01*
X119810Y40249D02*
X120844D01*
X121994D02*
X123020D01*
X119842Y40343D02*
X120863D01*
X121994D02*
X123020D01*
X119867Y40437D02*
X120881D01*
X121994D02*
X123020D01*
X118198Y40530D02*
X119099D01*
X119886D02*
X120894D01*
X121994D02*
X123020D01*
X123708D02*
X124587D01*
X129984D02*
X131099D01*
X117956Y40624D02*
X119341D01*
X119896D02*
X120905D01*
X121994D02*
X123020D01*
X123480D02*
X124852D01*
X126691D02*
X127712D01*
X129676D02*
X131426D01*
X133293D02*
X136765D01*
X117798Y40718D02*
X119492D01*
X119902D02*
X120915D01*
X121994D02*
X123020D01*
X123337D02*
X125015D01*
X126691D02*
X127712D01*
X129477D02*
X131625D01*
X133293D02*
X136765D01*
X117673Y40811D02*
X119609D01*
X119904D02*
X120919D01*
X121994D02*
X123020D01*
X123224D02*
X125146D01*
X126691D02*
X127712D01*
X129323D02*
X131779D01*
X133293D02*
X136765D01*
X117570Y40905D02*
X119706D01*
X119904D02*
X120922D01*
X121994D02*
X123020D01*
X123134D02*
X125251D01*
X126691D02*
X127712D01*
X129197D02*
X131903D01*
X133293D02*
X136765D01*
X117483Y40999D02*
X119783D01*
X119904D02*
X120925D01*
X121994D02*
X123020D01*
X123063D02*
X125341D01*
X126691D02*
X127712D01*
X129093D02*
X132004D01*
X133293D02*
X136765D01*
X117413Y41093D02*
X119851D01*
X119904D02*
X120925D01*
X121994D02*
X125420D01*
X126691D02*
X127712D01*
X129006D02*
X132094D01*
X133293D02*
X136765D01*
X117350Y41186D02*
X120925D01*
X121994D02*
X125490D01*
X126691D02*
X127712D01*
X128928D02*
X132178D01*
X133293D02*
X136765D01*
X117292Y41280D02*
X118852D01*
X119124D02*
X120925D01*
X121994D02*
X123738D01*
X124005D02*
X125548D01*
X126691D02*
X127712D01*
X128860D02*
X130413D01*
X130741D02*
X132245D01*
X133293D02*
X136765D01*
X117248Y41374D02*
X118574D01*
X119411D02*
X120925D01*
X121994D02*
X123451D01*
X124292D02*
X125602D01*
X126691D02*
X127712D01*
X128802D02*
X130084D01*
X131059D02*
X132306D01*
X133293D02*
X136765D01*
X117208Y41467D02*
X118440D01*
X119544D02*
X120925D01*
X121994D02*
X123327D01*
X124428D02*
X125647D01*
X126691D02*
X127712D01*
X128748D02*
X129935D01*
X131200D02*
X132357D01*
X133381D02*
X134494D01*
X117174Y41561D02*
X118350D01*
X119641D02*
X120925D01*
X121994D02*
X123235D01*
X124518D02*
X125690D01*
X126691D02*
X127712D01*
X128707D02*
X129836D01*
X131293D02*
X132402D01*
X133477D02*
X134596D01*
X117144Y41655D02*
X118281D01*
X119712D02*
X120925D01*
X121994D02*
X123168D01*
X124590D02*
X125722D01*
X126691D02*
X127712D01*
X128666D02*
X129763D01*
X131362D02*
X132443D01*
X133574D02*
X134698D01*
X117119Y41748D02*
X118227D01*
X119772D02*
X120925D01*
X121994D02*
X123113D01*
X124646D02*
X125753D01*
X126691D02*
X127712D01*
X128637D02*
X129714D01*
X131413D02*
X132476D01*
X133670D02*
X134800D01*
X117100Y41842D02*
X118182D01*
X119817D02*
X120925D01*
X121994D02*
X123071D01*
X124692D02*
X125778D01*
X126691D02*
X127712D01*
X128609D02*
X129672D01*
X131450D02*
X132504D01*
X133767D02*
X134901D01*
X117083Y41936D02*
X118151D01*
X119850D02*
X120925D01*
X121994D02*
X123043D01*
X124728D02*
X125803D01*
X126691D02*
X127712D01*
X128591D02*
X129641D01*
X131480D02*
X132528D01*
X133863D02*
X135003D01*
X117071Y42030D02*
X118128D01*
X119877D02*
X120925D01*
X121994D02*
X123022D01*
X124755D02*
X125820D01*
X126691D02*
X127712D01*
X128572D02*
X129617D01*
X131505D02*
X132548D01*
X133959D02*
X135105D01*
X117062Y42123D02*
X118111D01*
X119894D02*
X120925D01*
X121994D02*
X123008D01*
X124774D02*
X125837D01*
X126691D02*
X127712D01*
X128559D02*
X129599D01*
X131525D02*
X132565D01*
X134056D02*
X135207D01*
X117056Y42217D02*
X118099D01*
X119905D02*
X120925D01*
X121994D02*
X123005D01*
X124791D02*
X125848D01*
X126691D02*
X127712D01*
X128546D02*
X129586D01*
X131539D02*
X132578D01*
X134152D02*
X135309D01*
X117054Y42311D02*
X118092D01*
X119911D02*
X120925D01*
X121994D02*
X123005D01*
X124807D02*
X125856D01*
X126691D02*
X127712D01*
X128541D02*
X129579D01*
X131546D02*
X132590D01*
X134248D02*
X135411D01*
X117053Y42404D02*
X118089D01*
X119914D02*
X120925D01*
X121994D02*
X123005D01*
X124814D02*
X125863D01*
X126691D02*
X127712D01*
X128539D02*
X129575D01*
X131551D02*
X132592D01*
X134345D02*
X135513D01*
X117055Y42498D02*
X118091D01*
X119914D02*
X120925D01*
X121994D02*
X123005D01*
X124818D02*
X125867D01*
X126691D02*
X127712D01*
X128538D02*
X129573D01*
X131554D02*
X132594D01*
X134441D02*
X135615D01*
X117057Y42592D02*
X118094D01*
X119914D02*
X120925D01*
X121994D02*
X123005D01*
X124821D02*
X125871D01*
X126691D02*
X127712D01*
X128540D02*
X129576D01*
X131552D02*
X132594D01*
X134538D02*
X135715D01*
X117064Y42685D02*
X118100D01*
X119914D02*
X120925D01*
X121994D02*
X123005D01*
X124818D02*
X125868D01*
X126691D02*
X127712D01*
X128542D02*
X129581D01*
X131548D02*
X132591D01*
X134634D02*
X135812D01*
X117074Y42779D02*
X118112D01*
X119914D02*
X120925D01*
X121994D02*
X123010D01*
X124813D02*
X125863D01*
X126691D02*
X127712D01*
X128553D02*
X129590D01*
X131541D02*
X132587D01*
X134730D02*
X135906D01*
X117087Y42873D02*
X118128D01*
X119908D02*
X120925D01*
X121994D02*
X123024D01*
X124805D02*
X125857D01*
X126691D02*
X127712D01*
X128565D02*
X129604D01*
X131528D02*
X132576D01*
X134827D02*
X135993D01*
X117104Y42967D02*
X118151D01*
X119898D02*
X120925D01*
X121994D02*
X123043D01*
X124789D02*
X125848D01*
X126691D02*
X127712D01*
X128581D02*
X129627D01*
X131510D02*
X132565D01*
X134922D02*
X136077D01*
X117122Y43060D02*
X118178D01*
X119876D02*
X120925D01*
X121994D02*
X123070D01*
X124769D02*
X125837D01*
X126691D02*
X127712D01*
X128602D02*
X129657D01*
X131485D02*
X132544D01*
X135014D02*
X136159D01*
X117145Y43154D02*
X118218D01*
X119848D02*
X120925D01*
X121994D02*
X123104D01*
X124744D02*
X125822D01*
X126691D02*
X127712D01*
X128624D02*
X129694D01*
X131456D02*
X132524D01*
X135104D02*
X136235D01*
X117168Y43248D02*
X118263D01*
X119804D02*
X120925D01*
X121994D02*
X123150D01*
X124709D02*
X125804D01*
X126691D02*
X127712D01*
X128652D02*
X129739D01*
X131418D02*
X132495D01*
X135193D02*
X136306D01*
X117200Y43341D02*
X118320D01*
X119747D02*
X120925D01*
X121994D02*
X123211D01*
X124663D02*
X125779D01*
X126691D02*
X127712D01*
X128683D02*
X129798D01*
X131368D02*
X132466D01*
X135279D02*
X136373D01*
X117234Y43435D02*
X118396D01*
X119676D02*
X120925D01*
X121994D02*
X123284D01*
X124598D02*
X125751D01*
X126691D02*
X127712D01*
X128724D02*
X129874D01*
X131296D02*
X132428D01*
X135361D02*
X136439D01*
X117277Y43529D02*
X118493D01*
X119580D02*
X120925D01*
X121994D02*
X123382D01*
X124513D02*
X125719D01*
X126691D02*
X127712D01*
X128769D02*
X129975D01*
X131200D02*
X132388D01*
X135434D02*
X136497D01*
X117321Y43622D02*
X118632D01*
X119439D02*
X120925D01*
X121994D02*
X123519D01*
X124373D02*
X125680D01*
X126691D02*
X127712D01*
X128824D02*
X130122D01*
X131048D02*
X132334D01*
X135501D02*
X136550D01*
X117378Y43716D02*
X118937D01*
X119131D02*
X120925D01*
X121994D02*
X123835D01*
X124037D02*
X125636D01*
X126691D02*
X127712D01*
X128885D02*
X130461D01*
X130686D02*
X132276D01*
X135563D02*
X136598D01*
X117439Y43810D02*
X120925D01*
X121994D02*
X125584D01*
X126691D02*
X127712D01*
X128952D02*
X132209D01*
X135619D02*
X136641D01*
X117511Y43904D02*
X120925D01*
X121994D02*
X123020D01*
X123089D02*
X125526D01*
X126691D02*
X127712D01*
X129034D02*
X132131D01*
X135665D02*
X136681D01*
X117591Y43997D02*
X119855D01*
X119904D02*
X120925D01*
X121994D02*
X123020D01*
X123162D02*
X125456D01*
X126691D02*
X127712D01*
X129126D02*
X132043D01*
X135702D02*
X136715D01*
X117680Y44091D02*
X119784D01*
X119904D02*
X120925D01*
X121994D02*
X123020D01*
X123248D02*
X125371D01*
X126691D02*
X127712D01*
X129233D02*
X131938D01*
X135730D02*
X136743D01*
X117789Y44185D02*
X119698D01*
X119904D02*
X120925D01*
X121994D02*
X123020D01*
X123347D02*
X125272D01*
X126691D02*
X127712D01*
X129363D02*
X131811D01*
X135754D02*
X136770D01*
X117922Y44278D02*
X119586D01*
X119904D02*
X120925D01*
X121994D02*
X123020D01*
X123466D02*
X125147D01*
X126691D02*
X127712D01*
X129524D02*
X131657D01*
X135768D02*
X136789D01*
X118098Y44372D02*
X119440D01*
X119904D02*
X120925D01*
X121994D02*
X123020D01*
X123634D02*
X124986D01*
X126691D02*
X127712D01*
X129734D02*
X131452D01*
X135774D02*
X136799D01*
X118372Y44466D02*
X119200D01*
X123886D02*
X124712D01*
X130076D02*
X131118D01*
X135774D02*
X136805D01*
X135767Y44559D02*
X136808D01*
X135752Y44653D02*
X136806D01*
X133557Y44747D02*
X133661D01*
X135729D02*
X136799D01*
X133557Y44841D02*
X133782D01*
X135694D02*
X136785D01*
X133557Y44934D02*
X133921D01*
X135638D02*
X136768D01*
X133557Y45028D02*
X134089D01*
X135560D02*
X136747D01*
X133557Y45122D02*
X134307D01*
X135427D02*
X136715D01*
X126896Y45215D02*
X127525D01*
X133557D02*
X134674D01*
X135137D02*
X136677D01*
X126773Y45309D02*
X127650D01*
X133557D02*
X136630D01*
X126696Y45403D02*
X127730D01*
X133557D02*
X136570D01*
X126647Y45496D02*
X127773D01*
X133557D02*
X136501D01*
X126618Y45590D02*
X127802D01*
X133556D02*
X136417D01*
X126609Y45684D02*
X127809D01*
X133698D02*
X136313D01*
X126616Y45778D02*
X127806D01*
X133872D02*
X136184D01*
X126637Y45871D02*
X127782D01*
X134077D02*
X136019D01*
X126681Y45965D02*
X127739D01*
X134376D02*
X135778D01*
X126748Y46059D02*
X127669D01*
X126861Y46152D02*
X127552D01*
X165274Y7599D02*
X165265Y7291D01*
X165235Y7003*
X165191Y6725*
X165128Y6466*
X165045Y6222*
X164943Y6002*
X164820Y5797*
X164683Y5606*
X164610Y5524*
X164527Y5441*
X164444Y5367*
X164352Y5294*
X164259Y5230*
X164161Y5167*
X164054Y5113*
X163946Y5065*
X163834Y5020*
X163717Y4981*
X163595Y4947*
X163463Y4923*
X163331Y4898*
X163199Y4884*
X163057Y4879*
X162911Y4874*
X162765Y4879*
X162628Y4884*
X162496Y4898*
X162364Y4918*
X162242Y4943*
X162125Y4972*
X162008Y5006*
X161900Y5050*
X161798Y5094*
X161695Y5143*
X161602Y5201*
X161510Y5260*
X161427Y5328*
X161344Y5396*
X161266Y5475*
X161197Y5553*
X161129Y5641*
X161065Y5728*
X161007Y5826*
X160953Y5924*
X160904Y6031*
X160860Y6144*
X160817Y6256*
X160782Y6378*
X160724Y6632*
X160680Y6910*
X160655Y7198*
X160646Y7511*
X160655Y7809*
X160685Y8097*
X160728Y8365*
X160792Y8624*
X160875Y8863*
X160978Y9088*
X161100Y9288*
X161236Y9474*
X161315Y9561*
X161393Y9640*
X161480Y9713*
X161569Y9786*
X161666Y9850*
X161764Y9908*
X161871Y9967*
X161978Y10016*
X162091Y10059*
X162208Y10099*
X162330Y10133*
X162457Y10157*
X162589Y10177*
X162726Y10191*
X162867Y10201*
X163014Y10206*
X163155Y10201*
X163292Y10196*
X163424Y10181*
X163551Y10162*
X163673Y10138*
X163790Y10108*
X163902Y10074*
X164010Y10035*
X164112Y9986*
X164215Y9937*
X164307Y9884*
X164400Y9820*
X164483Y9757*
X164567Y9689*
X164644Y9610*
X164718Y9532*
X164850Y9356*
X164962Y9161*
X165059Y8946*
X165138Y8717*
X165196Y8463*
X165240Y8194*
X165265Y7906*
X165274Y7599*
X164547Y7555D02*
X164542Y7770D01*
X164527Y7980*
X164503Y8180*
X164469Y8370*
X164425Y8556*
X164366Y8726*
X164293Y8883*
X164210Y9029*
X164112Y9161*
X163995Y9278*
X163868Y9376*
X163722Y9464*
X163561Y9532*
X163385Y9581*
X163185Y9610*
X162970Y9620*
X162862Y9615*
X162755Y9610*
X162657Y9596*
X162559Y9576*
X162467Y9552*
X162384Y9527*
X162301Y9493*
X162223Y9449*
X162076Y9361*
X161944Y9254*
X161827Y9137*
X161725Y9005*
X161637Y8858*
X161563Y8697*
X161505Y8531*
X161456Y8346*
X161417Y8160*
X161393Y7965*
X161378Y7765*
X161373Y7559*
X161378Y7335*
X161393Y7120*
X161417Y6915*
X161451Y6720*
X161495Y6534*
X161549Y6363*
X161622Y6202*
X161705Y6056*
X161803Y5924*
X161915Y5807*
X162042Y5709*
X162189Y5621*
X162345Y5557*
X162525Y5509*
X162726Y5480*
X162945Y5470*
X163053*
X163160Y5480*
X163263Y5494*
X163360Y5514*
X163453Y5533*
X163541Y5563*
X163624Y5597*
X163702Y5636*
X163849Y5728*
X163980Y5836*
X164098Y5958*
X164200Y6090*
X164288Y6241*
X164361Y6402*
X164420Y6573*
X164469Y6754*
X164503Y6944*
X164527Y7144*
X164542Y7345*
X164547Y7555*
X169596Y6910D02*
X169591Y6676D01*
X169571Y6461*
X169537Y6251*
X169493Y6061*
X169435Y5880*
X169366Y5709*
X169288Y5557*
X169195Y5421*
X169088Y5294*
X168971Y5187*
X168844Y5094*
X168702Y5016*
X168551Y4952*
X168390Y4908*
X168219Y4884*
X168038Y4874*
X167882Y4884*
X167740Y4908*
X167604Y4947*
X167476Y5006*
X167345Y5084*
X167218Y5177*
X167086Y5289*
X166944Y5421*
Y3624*
X166939Y3595*
X166930Y3570*
X166905Y3546*
X166876Y3526*
X166832Y3517*
X166778Y3507*
X166705Y3497*
X166612*
X166524*
X166451Y3507*
X166398Y3517*
X166354Y3526*
X166319Y3546*
X166300Y3570*
X166290Y3595*
X166285Y3624*
Y8653*
X166290Y8683*
X166295Y8707*
X166315Y8731*
X166344Y8746*
X166388Y8761*
X166437Y8770*
X166500Y8775*
X166573*
X166651*
X166710Y8770*
X166759Y8761*
X166803Y8746*
X166832Y8731*
X166852Y8707*
X166861Y8683*
X166866Y8653*
Y8170*
X166944Y8248*
X167027Y8326*
X167106Y8394*
X167179Y8463*
X167257Y8522*
X167335Y8575*
X167408Y8624*
X167486Y8668*
X167565Y8707*
X167643Y8741*
X167721Y8766*
X167804Y8790*
X167887Y8809*
X167970Y8824*
X168057Y8829*
X168146Y8834*
X168331Y8824*
X168507Y8795*
X168668Y8746*
X168809Y8683*
X168941Y8600*
X169063Y8502*
X169166Y8390*
X169264Y8263*
X169342Y8126*
X169410Y7980*
X169469Y7819*
X169518Y7652*
X169552Y7472*
X169576Y7291*
X169591Y7100*
X169596Y6910*
X168912Y6832D02*
X168907Y6969D01*
X168902Y7106*
X168888Y7237*
X168868Y7369*
X168844Y7491*
X168815Y7608*
X168770Y7721*
X168726Y7828*
X168668Y7921*
X168604Y8004*
X168531Y8082*
X168448Y8146*
X168356Y8199*
X168253Y8238*
X168141Y8258*
X168019Y8268*
X167892Y8258*
X167765Y8228*
X167701Y8209*
X167638Y8180*
X167574Y8146*
X167511Y8106*
X167447Y8063*
X167379Y8014*
X167311Y7955*
X167242Y7892*
X167169Y7819*
X167096Y7740*
X167022Y7652*
X166944Y7559*
Y6129*
X167013Y6046*
X167081Y5968*
X167144Y5900*
X167213Y5831*
X167276Y5772*
X167340Y5714*
X167403Y5665*
X167462Y5616*
X167525Y5577*
X167589Y5538*
X167652Y5509*
X167716Y5484*
X167779Y5465*
X167848Y5450*
X167911Y5445*
X167980Y5441*
X168097Y5445*
X168209Y5470*
X168311Y5509*
X168409Y5563*
X168492Y5626*
X168570Y5699*
X168639Y5787*
X168697Y5880*
X168751Y5982*
X168795Y6095*
X168829Y6207*
X168858Y6329*
X168883Y6456*
X168898Y6578*
X168907Y6705*
X168912Y6832*
X173663Y7008D02*
X173658Y6935D01*
X173644Y6876*
X173619Y6822*
X173585Y6783*
X173546Y6759*
X173502Y6734*
X173453Y6725*
X173404Y6720*
X171036*
X171041Y6573*
X171051Y6437*
X171070Y6305*
X171095Y6178*
X171134Y6065*
X171178Y5958*
X171231Y5856*
X171300Y5768*
X171373Y5685*
X171461Y5616*
X171554Y5553*
X171661Y5504*
X171783Y5465*
X171915Y5435*
X172057Y5416*
X172213Y5411*
X172340*
X172457Y5421*
X172569Y5435*
X172672Y5455*
X172770Y5475*
X172857Y5499*
X172945Y5524*
X173019Y5548*
X173092Y5572*
X173155Y5597*
X173209Y5621*
X173263Y5641*
X173307Y5660*
X173346Y5675*
X173375Y5680*
X173404Y5685*
X173429Y5680*
X173453Y5670*
X173473Y5650*
X173487Y5626*
X173497Y5597*
X173507Y5548*
X173512Y5494*
Y5426*
Y5377*
X173507Y5338*
X173497Y5270*
X173478Y5216*
X173443Y5167*
X173424Y5157*
X173400Y5138*
X173360Y5118*
X173311Y5099*
X173253Y5069*
X173189Y5045*
X173116Y5020*
X173033Y4996*
X172941Y4976*
X172848Y4952*
X172745Y4933*
X172633Y4913*
X172520Y4894*
X172398Y4884*
X172154Y4874*
X171939Y4884*
X171734Y4903*
X171549Y4943*
X171373Y4996*
X171212Y5069*
X171065Y5152*
X170933Y5250*
X170811Y5367*
X170704Y5494*
X170611Y5641*
X170533Y5802*
X170470Y5978*
X170416Y6168*
X170382Y6378*
X170362Y6598*
X170352Y6837*
X170362Y7061*
X170382Y7276*
X170421Y7481*
X170475Y7672*
X170538Y7848*
X170621Y8014*
X170714Y8165*
X170817Y8297*
X170939Y8419*
X171070Y8526*
X171212Y8619*
X171363Y8697*
X171529Y8756*
X171705Y8800*
X171886Y8824*
X172081Y8834*
X172286Y8824*
X172472Y8800*
X172643Y8756*
X172804Y8697*
X172945Y8624*
X173072Y8536*
X173189Y8439*
X173292Y8331*
X173380Y8209*
X173458Y8082*
X173522Y7941*
X173575Y7789*
X173614Y7633*
X173639Y7472*
X173658Y7301*
X173663Y7130*
Y7008*
X172999Y7203D02*
Y7330D01*
X172989Y7447*
X172975Y7559*
X172945Y7667*
X172916Y7765*
X172872Y7857*
X172823Y7941*
X172770Y8019*
X172701Y8087*
X172633Y8150*
X172550Y8199*
X172467Y8243*
X172374Y8272*
X172272Y8297*
X172164Y8311*
X172047Y8317*
X171925Y8311*
X171817Y8292*
X171710Y8263*
X171617Y8224*
X171524Y8175*
X171446Y8116*
X171373Y8053*
X171305Y7980*
X171246Y7901*
X171197Y7813*
X171148Y7721*
X171114Y7623*
X171080Y7520*
X171061Y7418*
X171046Y7311*
X171036Y7203*
X172999*
X177770Y5050D02*
X177765Y5020D01*
X177755Y4996*
X177730Y4976*
X177701Y4957*
X177657Y4947*
X177604Y4937*
X177530Y4928*
X177443*
X177350*
X177276Y4937*
X177223Y4947*
X177179Y4957*
X177150Y4976*
X177125Y4996*
X177115Y5020*
X177110Y5050*
Y7159*
X177106Y7306*
X177100Y7437*
X177086Y7555*
X177061Y7657*
X177037Y7750*
X177003Y7833*
X176964Y7911*
X176920Y7980*
X176871Y8048*
X176817Y8102*
X176754Y8150*
X176685Y8189*
X176607Y8224*
X176524Y8243*
X176437Y8258*
X176344Y8263*
X176285Y8258*
X176222Y8253*
X176158Y8238*
X176100Y8219*
X176036Y8194*
X175973Y8165*
X175909Y8126*
X175850Y8087*
X175787Y8038*
X175724Y7989*
X175660Y7931*
X175597Y7867*
X175528Y7804*
X175465Y7730*
X175396Y7652*
X175328Y7569*
Y5050*
X175323Y5020*
X175313Y4996*
X175289Y4976*
X175260Y4957*
X175216Y4947*
X175162Y4937*
X175089Y4928*
X174996*
X174908*
X174835Y4937*
X174781Y4947*
X174737Y4957*
X174703Y4976*
X174683Y4996*
X174674Y5020*
X174669Y5050*
Y8653*
X174674Y8683*
X174679Y8707*
X174698Y8726*
X174728Y8746*
X174772Y8761*
X174820Y8770*
X174884Y8775*
X174967*
X175050*
X175113Y8770*
X175167Y8761*
X175206Y8746*
X175230Y8726*
X175250Y8707*
X175260Y8683*
X175265Y8653*
Y8175*
X175338Y8258*
X175416Y8336*
X175494Y8404*
X175567Y8473*
X175646Y8531*
X175719Y8585*
X175797Y8634*
X175870Y8673*
X175948Y8712*
X176022Y8746*
X176100Y8770*
X176173Y8795*
X176251Y8809*
X176329Y8824*
X176402Y8829*
X176480Y8834*
X176656Y8824*
X176813Y8805*
X176959Y8766*
X177086Y8712*
X177203Y8644*
X177311Y8570*
X177403Y8482*
X177486Y8385*
X177555Y8277*
X177618Y8165*
X177667Y8038*
X177706Y7906*
X177730Y7765*
X177755Y7604*
X177765Y7433*
X177770Y7247*
Y5050*
X182467Y6437D02*
X182462Y6315D01*
X182452Y6202*
X182433Y6090*
X182403Y5987*
X182369Y5885*
X182330Y5792*
X182281Y5699*
X182232Y5616*
X182174Y5538*
X182106Y5460*
X182037Y5392*
X181959Y5328*
X181881Y5270*
X181793Y5216*
X181700Y5162*
X181602Y5118*
X181505Y5079*
X181398Y5045*
X181290Y5016*
X181183Y4996*
X181065Y4976*
X180939Y4962*
X180807Y4952*
X180660*
X179307*
X179264Y4957*
X179220Y4967*
X179176Y4986*
X179137Y5016*
X179098Y5050*
X179073Y5099*
X179059Y5157*
X179054Y5230*
Y9850*
X179059Y9918*
X179073Y9981*
X179098Y10030*
X179137Y10065*
X179176Y10094*
X179220Y10113*
X179264Y10123*
X179307Y10128*
X180484*
X180602*
X180709Y10123*
X180811Y10113*
X180909Y10104*
X181002Y10094*
X181090Y10079*
X181173Y10059*
X181246Y10040*
X181388Y9991*
X181520Y9933*
X181637Y9864*
X181739Y9781*
X181837Y9693*
X181915Y9596*
X181983Y9488*
X182042Y9371*
X182086Y9244*
X182115Y9112*
X182135Y8971*
X182140Y8819*
X182135Y8726*
X182130Y8639*
X182115Y8551*
X182096Y8468*
X182071Y8385*
X182042Y8307*
X182008Y8228*
X181964Y8155*
X181920Y8087*
X181866Y8024*
X181813Y7960*
X181749Y7901*
X181681Y7848*
X181612Y7804*
X181534Y7760*
X181451Y7721*
X181554Y7696*
X181656Y7662*
X181754Y7623*
X181847Y7574*
X181935Y7516*
X182018Y7452*
X182096Y7384*
X182169Y7306*
X182232Y7218*
X182291Y7125*
X182345Y7027*
X182389Y6920*
X182423Y6807*
X182447Y6691*
X182462Y6563*
X182467Y6437*
X181431Y8751D02*
X181427Y8844D01*
X181417Y8931*
X181402Y9010*
X181378Y9088*
X181349Y9161*
X181315Y9230*
X181270Y9293*
X181217Y9347*
X181158Y9396*
X181085Y9439*
X181012Y9478*
X180924Y9508*
X180826Y9532*
X180714Y9552*
X180587Y9561*
X180450Y9567*
X179737*
Y7892*
X180519*
X180646Y7896*
X180763Y7906*
X180865Y7931*
X180953Y7960*
X181031Y7999*
X181100Y8043*
X181168Y8092*
X181222Y8150*
X181275Y8209*
X181319Y8277*
X181354Y8350*
X181383Y8424*
X181402Y8502*
X181417Y8585*
X181427Y8668*
X181431Y8751*
X181744Y6398D02*
X181739Y6510D01*
X181725Y6612*
X181705Y6710*
X181671Y6803*
X181627Y6886*
X181578Y6964*
X181520Y7037*
X181456Y7100*
X181378Y7154*
X181295Y7203*
X181202Y7247*
X181100Y7281*
X180982Y7311*
X180856Y7330*
X180714Y7340*
X180563Y7345*
X179737*
Y5519*
X180738*
X180850Y5524*
X180958Y5533*
X181056Y5548*
X181148Y5572*
X181236Y5606*
X181315Y5646*
X181388Y5689*
X181456Y5738*
X181520Y5797*
X181578Y5865*
X181627Y5933*
X181666Y6017*
X181700Y6100*
X181725Y6193*
X181739Y6290*
X181744Y6398*
X186969Y5689D02*
Y5626D01*
X186964Y5577*
X186959Y5533*
X186949Y5494*
X186925Y5431*
X186905Y5396*
X186871Y5362*
X186842Y5338*
X186807Y5309*
X186759Y5274*
X186700Y5235*
X186632Y5196*
X186559Y5157*
X186476Y5113*
X186383Y5074*
X186285Y5040*
X186178Y5001*
X186065Y4972*
X185943Y4943*
X185821Y4918*
X185689Y4903*
X185553Y4894*
X185406Y4889*
X185284Y4894*
X185162Y4898*
X185045Y4913*
X184928Y4933*
X184815Y4952*
X184708Y4981*
X184600Y5016*
X184498Y5055*
X184396Y5099*
X184303Y5148*
X184210Y5206*
X184122Y5265*
X184034Y5328*
X183956Y5396*
X183878Y5475*
X183805Y5553*
X183668Y5724*
X183551Y5919*
X183448Y6129*
X183365Y6363*
X183297Y6612*
X183248Y6881*
X183219Y7169*
X183209Y7472*
X183214Y7633*
X183219Y7784*
X183233Y7935*
X183253Y8082*
X183272Y8224*
X183302Y8360*
X183336Y8492*
X183375Y8619*
X183468Y8863*
X183575Y9083*
X183702Y9288*
X183844Y9474*
X183917Y9557*
X184000Y9640*
X184083Y9713*
X184171Y9781*
X184264Y9845*
X184361Y9903*
X184459Y9957*
X184561Y10006*
X184669Y10050*
X184776Y10089*
X184889Y10118*
X185001Y10143*
X185118Y10167*
X185240Y10181*
X185362Y10187*
X185489Y10191*
X185597Y10187*
X185709Y10181*
X185817Y10167*
X185924Y10148*
X186129Y10104*
X186315Y10045*
X186402Y10011*
X186485Y9972*
X186563Y9937*
X186637Y9894*
X186700Y9854*
X186754Y9820*
X186798Y9786*
X186832Y9757*
X186876Y9708*
X186900Y9674*
X186930Y9610*
X186935Y9567*
X186944Y9518*
X186949Y9464*
Y9396*
Y9322*
X186939Y9259*
X186930Y9210*
X186915Y9166*
X186900Y9132*
X186881Y9112*
X186856Y9098*
X186822Y9093*
X186793Y9098*
X186759Y9112*
X186715Y9137*
X186666Y9171*
X186612Y9210*
X186554Y9254*
X186485Y9298*
X186407Y9342*
X186324Y9386*
X186231Y9430*
X186129Y9474*
X186022Y9513*
X185900Y9547*
X185772Y9571*
X185631Y9586*
X185475Y9591*
X185304Y9581*
X185143Y9557*
X184991Y9513*
X184845Y9454*
X184708Y9376*
X184581Y9283*
X184464Y9171*
X184361Y9049*
X184264Y8907*
X184181Y8751*
X184107Y8580*
X184049Y8394*
X184000Y8194*
X183966Y7980*
X183941Y7755*
X183937Y7511*
X183941Y7272*
X183966Y7047*
X183995Y6837*
X184044Y6642*
X184102Y6461*
X184171Y6295*
X184254Y6148*
X184352Y6012*
X184454Y5894*
X184571Y5787*
X184698Y5699*
X184840Y5631*
X184986Y5572*
X185148Y5533*
X185319Y5509*
X185494Y5499*
X185646Y5504*
X185787Y5519*
X185914Y5543*
X186036Y5577*
X186148Y5616*
X186251Y5655*
X186344Y5699*
X186431Y5743*
X186510Y5792*
X186578Y5836*
X186642Y5875*
X186700Y5914*
X186749Y5948*
X186793Y5973*
X186832Y5987*
X186866Y5992*
X186891Y5987*
X186910Y5978*
X186930Y5963*
X186944Y5933*
X186954Y5894*
X186964Y5841*
X186969Y5772*
Y5689*
X188570Y5055D02*
X188565Y5025D01*
X188556Y5001*
X188531Y4976*
X188497Y4962*
X188453Y4947*
X188394Y4937*
X188317Y4928*
X188228*
X188136*
X188063Y4937*
X187999Y4947*
X187955Y4962*
X187921Y4976*
X187896Y5001*
X187887Y5025*
X187882Y5055*
Y10025*
X187887Y10055*
X187901Y10079*
X187926Y10104*
X187960Y10118*
X188009Y10133*
X188067Y10143*
X188141Y10148*
X188228Y10152*
X188317Y10148*
X188394Y10143*
X188453Y10133*
X188497Y10118*
X188531Y10104*
X188556Y10079*
X188565Y10055*
X188570Y10025*
Y5055*
X166506Y3500D02*
X166723D01*
X166291Y3593D02*
X166939D01*
X166285Y3687D02*
X166944D01*
X166285Y3781D02*
X166944D01*
X166285Y3874D02*
X166944D01*
X166285Y3968D02*
X166944D01*
X166285Y4062D02*
X166944D01*
X166285Y4156D02*
X166944D01*
X166285Y4249D02*
X166944D01*
X166285Y4343D02*
X166944D01*
X166285Y4437D02*
X166944D01*
X166285Y4530D02*
X166944D01*
X166285Y4624D02*
X166944D01*
X166285Y4718D02*
X166944D01*
X166285Y4811D02*
X166944D01*
X162451Y4905D02*
X163367D01*
X166285D02*
X166944D01*
X167758D02*
X168368D01*
X171725D02*
X172587D01*
X185108D02*
X185707D01*
X162032Y4999D02*
X163769D01*
X166285D02*
X166944D01*
X167492D02*
X168662D01*
X171367D02*
X173043D01*
X174682D02*
X175315D01*
X177124D02*
X177756D01*
X179159D02*
X181198D01*
X184654D02*
X186170D01*
X187898D02*
X188554D01*
X161800Y5093D02*
X164008D01*
X166285D02*
X166944D01*
X167333D02*
X168844D01*
X171171D02*
X173299D01*
X174669D02*
X175328D01*
X177110D02*
X177770D01*
X179076D02*
X181538D01*
X184410D02*
X186426D01*
X187882D02*
X188570D01*
X161626Y5186D02*
X164191D01*
X166285D02*
X166944D01*
X167207D02*
X168971D01*
X171020D02*
X173457D01*
X174669D02*
X175328D01*
X177110D02*
X177770D01*
X179057D02*
X181742D01*
X184241D02*
X186613D01*
X187882D02*
X188570D01*
X161485Y5280D02*
X164331D01*
X166285D02*
X166944D01*
X167096D02*
X169072D01*
X170902D02*
X173499D01*
X174669D02*
X175328D01*
X177110D02*
X177770D01*
X179054D02*
X181894D01*
X184101D02*
X186767D01*
X187882D02*
X188570D01*
X161371Y5374D02*
X164452D01*
X166285D02*
X166944D01*
X166995D02*
X169155D01*
X170806D02*
X173511D01*
X174669D02*
X175328D01*
X177110D02*
X177770D01*
X179054D02*
X182015D01*
X183982D02*
X186883D01*
X187882D02*
X188570D01*
X161273Y5467D02*
X164554D01*
X166285D02*
X167771D01*
X168198D02*
X169227D01*
X170727D02*
X171776D01*
X172733D02*
X173512D01*
X174669D02*
X175328D01*
X177110D02*
X177770D01*
X179054D02*
X182112D01*
X183885D02*
X186939D01*
X187882D02*
X188570D01*
X161191Y5561D02*
X162336D01*
X163537D02*
X164643D01*
X166285D02*
X167552D01*
X168407D02*
X169290D01*
X170662D02*
X171541D01*
X173057D02*
X173504D01*
X174669D02*
X175328D01*
X177110D02*
X177770D01*
X179054D02*
X179737D01*
X181105D02*
X182191D01*
X183798D02*
X185033D01*
X185979D02*
X186962D01*
X187882D02*
X188570D01*
X161119Y5655D02*
X162133D01*
X163732D02*
X164718D01*
X166285D02*
X167415D01*
X168523D02*
X169338D01*
X170604D02*
X171411D01*
X173294D02*
X173469D01*
X174669D02*
X175328D01*
X177110D02*
X177770D01*
X179054D02*
X179737D01*
X181330D02*
X182255D01*
X183723D02*
X184790D01*
X186250D02*
X186969D01*
X187882D02*
X188570D01*
X161053Y5748D02*
X161991D01*
X163873D02*
X164786D01*
X166285D02*
X167302D01*
X168609D02*
X169382D01*
X170559D02*
X171317D01*
X174669D02*
X175328D01*
X177110D02*
X177770D01*
X179054D02*
X179737D01*
X181467D02*
X182307D01*
X183653D02*
X184627D01*
X186440D02*
X186969D01*
X187882D02*
X188570D01*
X160998Y5842D02*
X161881D01*
X163986D02*
X164847D01*
X166285D02*
X167202D01*
X168673D02*
X169420D01*
X170519D02*
X171242D01*
X174669D02*
X175328D01*
X177110D02*
X177770D01*
X179054D02*
X179737D01*
X181558D02*
X182351D01*
X183597D02*
X184511D01*
X186588D02*
X186964D01*
X187882D02*
X188570D01*
X160948Y5936D02*
X161794D01*
X164076D02*
X164903D01*
X166285D02*
X167111D01*
X168726D02*
X169453D01*
X170485D02*
X171189D01*
X174669D02*
X175328D01*
X177110D02*
X177770D01*
X179054D02*
X179737D01*
X181628D02*
X182386D01*
X183543D02*
X184418D01*
X186731D02*
X186943D01*
X187882D02*
X188570D01*
X160905Y6030D02*
X161724D01*
X164153D02*
X164956D01*
X166285D02*
X167027D01*
X168769D02*
X169483D01*
X170455D02*
X171148D01*
X174669D02*
X175328D01*
X177110D02*
X177770D01*
X179054D02*
X179737D01*
X181671D02*
X182415D01*
X183497D02*
X184339D01*
X187882D02*
X188570D01*
X160868Y6123D02*
X161667D01*
X164219D02*
X164999D01*
X166285D02*
X166949D01*
X168804D02*
X169508D01*
X170429D02*
X171114D01*
X174669D02*
X175328D01*
X177110D02*
X177770D01*
X179054D02*
X179737D01*
X181706D02*
X182439D01*
X183451D02*
X184272D01*
X187882D02*
X188570D01*
X160832Y6217D02*
X161615D01*
X164274D02*
X165043D01*
X166285D02*
X166944D01*
X168831D02*
X169529D01*
X170408D02*
X171087D01*
X174669D02*
X175328D01*
X177110D02*
X177770D01*
X179054D02*
X179737D01*
X181728D02*
X182453D01*
X183417D02*
X184215D01*
X187882D02*
X188570D01*
X160801Y6311D02*
X161573D01*
X164320D02*
X165075D01*
X166285D02*
X166944D01*
X168854D02*
X169547D01*
X170393D02*
X171070D01*
X174669D02*
X175328D01*
X177110D02*
X177770D01*
X179054D02*
X179737D01*
X181740D02*
X182461D01*
X183384D02*
X184165D01*
X187882D02*
X188570D01*
X160776Y6404D02*
X161536D01*
X164362D02*
X165107D01*
X166285D02*
X166944D01*
X168873D02*
X169562D01*
X170380D02*
X171056D01*
X174669D02*
X175328D01*
X177110D02*
X177770D01*
X179054D02*
X179737D01*
X181744D02*
X182466D01*
X183354D02*
X184126D01*
X187882D02*
X188570D01*
X160755Y6498D02*
X161507D01*
X164394D02*
X165136D01*
X166285D02*
X166944D01*
X168888D02*
X169575D01*
X170371D02*
X171046D01*
X174669D02*
X175328D01*
X177110D02*
X177770D01*
X179054D02*
X179737D01*
X181740D02*
X182465D01*
X183328D02*
X184091D01*
X187882D02*
X188570D01*
X160733Y6592D02*
X161481D01*
X164425D02*
X165159D01*
X166285D02*
X166944D01*
X168899D02*
X169583D01*
X170363D02*
X171040D01*
X174669D02*
X175328D01*
X177110D02*
X177770D01*
X179054D02*
X179737D01*
X181728D02*
X182459D01*
X183302D02*
X184060D01*
X187882D02*
X188570D01*
X160715Y6685D02*
X161459D01*
X164450D02*
X165182D01*
X166285D02*
X166944D01*
X168906D02*
X169591D01*
X170359D02*
X171037D01*
X174669D02*
X175328D01*
X177110D02*
X177770D01*
X179054D02*
X179737D01*
X181710D02*
X182448D01*
X183283D02*
X184033D01*
X187882D02*
X188570D01*
X160700Y6779D02*
X161441D01*
X164473D02*
X165200D01*
X166285D02*
X166944D01*
X168910D02*
X169593D01*
X170355D02*
X173579D01*
X174669D02*
X175328D01*
X177110D02*
X177770D01*
X179054D02*
X179737D01*
X181680D02*
X182429D01*
X183267D02*
X184010D01*
X187882D02*
X188570D01*
X160685Y6873D02*
X161424D01*
X164490D02*
X165215D01*
X166285D02*
X166944D01*
X168911D02*
X169595D01*
X170354D02*
X173642D01*
X174669D02*
X175328D01*
X177110D02*
X177770D01*
X179054D02*
X179737D01*
X181634D02*
X182403D01*
X183250D02*
X183990D01*
X187882D02*
X188570D01*
X160675Y6967D02*
X161411D01*
X164506D02*
X165230D01*
X166285D02*
X166944D01*
X168907D02*
X169594D01*
X170358D02*
X173660D01*
X174669D02*
X175328D01*
X177110D02*
X177770D01*
X179054D02*
X179737D01*
X181576D02*
X182370D01*
X183239D02*
X183977D01*
X187882D02*
X188570D01*
X160667Y7060D02*
X161400D01*
X164517D02*
X165241D01*
X166285D02*
X166944D01*
X168904D02*
X169592D01*
X170362D02*
X173663D01*
X174669D02*
X175328D01*
X177110D02*
X177770D01*
X179054D02*
X179737D01*
X181496D02*
X182327D01*
X183230D02*
X183964D01*
X187882D02*
X188570D01*
X160659Y7154D02*
X161390D01*
X164528D02*
X165251D01*
X166285D02*
X166944D01*
X168897D02*
X169587D01*
X170371D02*
X173662D01*
X174669D02*
X175328D01*
X177110D02*
X177770D01*
X179054D02*
X179737D01*
X181379D02*
X182272D01*
X183220D02*
X183954D01*
X187882D02*
X188570D01*
X160654Y7248D02*
X161384D01*
X164535D02*
X165260D01*
X166285D02*
X166944D01*
X168886D02*
X169580D01*
X170379D02*
X171040D01*
X172999D02*
X173660D01*
X174669D02*
X175328D01*
X177107D02*
X177770D01*
X179054D02*
X179737D01*
X181201D02*
X182211D01*
X183216D02*
X183944D01*
X187882D02*
X188570D01*
X160651Y7341D02*
X161378D01*
X164542D02*
X165266D01*
X166285D02*
X166944D01*
X168872D02*
X169569D01*
X170394D02*
X171050D01*
X172998D02*
X173654D01*
X174669D02*
X175328D01*
X177104D02*
X177767D01*
X179054D02*
X179737D01*
X180667D02*
X182135D01*
X183213D02*
X183940D01*
X187882D02*
X188570D01*
X160648Y7435D02*
X161376D01*
X164544D02*
X165269D01*
X166285D02*
X166944D01*
X168855D02*
X169557D01*
X170412D02*
X171064D01*
X172991D02*
X173643D01*
X174669D02*
X175328D01*
X177100D02*
X177765D01*
X179054D02*
X182037D01*
X183210D02*
X183938D01*
X187882D02*
X188570D01*
X160646Y7529D02*
X161374D01*
X164546D02*
X165272D01*
X166285D02*
X166944D01*
X168834D02*
X169541D01*
X170434D02*
X171083D01*
X172979D02*
X173630D01*
X174669D02*
X175328D01*
X177089D02*
X177759D01*
X179054D02*
X181915D01*
X183211D02*
X183937D01*
X187882D02*
X188570D01*
X160649Y7622D02*
X161375D01*
X164545D02*
X165274D01*
X166285D02*
X166997D01*
X168809D02*
X169523D01*
X170461D02*
X171114D01*
X172957D02*
X173616D01*
X174669D02*
X175372D01*
X177070D02*
X177752D01*
X179054D02*
X181754D01*
X183213D02*
X183939D01*
X187882D02*
X188570D01*
X160652Y7716D02*
X161377D01*
X164543D02*
X165270D01*
X166285D02*
X167076D01*
X168772D02*
X169499D01*
X170491D02*
X171147D01*
X172931D02*
X173593D01*
X174669D02*
X175452D01*
X177046D02*
X177738D01*
X179054D02*
X181471D01*
X183217D02*
X183941D01*
X187882D02*
X188570D01*
X160655Y7810D02*
X161381D01*
X164539D02*
X165268D01*
X166285D02*
X167161D01*
X168734D02*
X169471D01*
X170524D02*
X171195D01*
X172894D02*
X173568D01*
X174669D02*
X175535D01*
X177012D02*
X177722D01*
X179054D02*
X181622D01*
X183221D02*
X183947D01*
X187882D02*
X188570D01*
X160665Y7904D02*
X161388D01*
X164533D02*
X165265D01*
X166285D02*
X167255D01*
X168679D02*
X169438D01*
X170566D02*
X171248D01*
X172845D02*
X173535D01*
X174669D02*
X175633D01*
X176967D02*
X177706D01*
X179054D02*
X179737D01*
X180730D02*
X181752D01*
X183230D02*
X183957D01*
X187882D02*
X188570D01*
X160674Y7997D02*
X161396D01*
X164525D02*
X165257D01*
X166285D02*
X167359D01*
X168609D02*
X169402D01*
X170613D02*
X171321D01*
X172784D02*
X173496D01*
X174669D02*
X175734D01*
X176907D02*
X177679D01*
X179054D02*
X179737D01*
X181027D02*
X181844D01*
X183242D02*
X183969D01*
X187882D02*
X188570D01*
X160684Y8091D02*
X161408D01*
X164513D02*
X165249D01*
X166285D02*
X167488D01*
X168519D02*
X169358D01*
X170669D02*
X171417D01*
X172697D02*
X173452D01*
X174669D02*
X175856D01*
X176828D02*
X177646D01*
X179054D02*
X179737D01*
X181167D02*
X181922D01*
X183254D02*
X183983D01*
X187882D02*
X188570D01*
X160699Y8185D02*
X161422D01*
X164502D02*
X165241D01*
X166285D02*
X166866D01*
X166881D02*
X167649D01*
X168381D02*
X169308D01*
X170729D02*
X171543D01*
X172575D02*
X173395D01*
X174669D02*
X175265D01*
X175273D02*
X176015D01*
X176694D02*
X177607D01*
X179054D02*
X179737D01*
X181253D02*
X181981D01*
X183267D02*
X183998D01*
X187882D02*
X188570D01*
X160714Y8278D02*
X161442D01*
X164485D02*
X165226D01*
X166285D02*
X166866D01*
X166977D02*
X169252D01*
X170802D02*
X171767D01*
X172349D02*
X173330D01*
X174669D02*
X175265D01*
X175358D02*
X177555D01*
X179054D02*
X179737D01*
X181320D02*
X182030D01*
X183284D02*
X184020D01*
X187882D02*
X188570D01*
X160730Y8372D02*
X161463D01*
X164469D02*
X165211D01*
X166285D02*
X166866D01*
X167080D02*
X169180D01*
X170892D02*
X173253D01*
X174669D02*
X175265D01*
X175457D02*
X177494D01*
X179054D02*
X179737D01*
X181362D02*
X182067D01*
X183305D02*
X184043D01*
X187882D02*
X188570D01*
X160753Y8466D02*
X161487D01*
X164446D02*
X165196D01*
X166285D02*
X166866D01*
X167182D02*
X169096D01*
X170996D02*
X173157D01*
X174669D02*
X175265D01*
X175560D02*
X177417D01*
X179054D02*
X179737D01*
X181393D02*
X182095D01*
X183329D02*
X184071D01*
X187882D02*
X188570D01*
X160776Y8559D02*
X161515D01*
X164424D02*
X165174D01*
X166285D02*
X166866D01*
X167312D02*
X168992D01*
X171121D02*
X173039D01*
X174669D02*
X175265D01*
X175684D02*
X177322D01*
X179054D02*
X179737D01*
X181413D02*
X182117D01*
X183357D02*
X184101D01*
X187882D02*
X188570D01*
X160802Y8653D02*
X161548D01*
X164391D02*
X165152D01*
X166285D02*
X166866D01*
X167460D02*
X168856D01*
X171278D02*
X172889D01*
X174669D02*
X175265D01*
X175833D02*
X177187D01*
X179054D02*
X179737D01*
X181425D02*
X182131D01*
X183388D02*
X184139D01*
X187882D02*
X188570D01*
X160835Y8747D02*
X161586D01*
X164357D02*
X165128D01*
X166346D02*
X166803D01*
X167660D02*
X168668D01*
X171504D02*
X172667D01*
X174730D02*
X175206D01*
X176024D02*
X177004D01*
X179054D02*
X179737D01*
X181431D02*
X182136D01*
X183424D02*
X184179D01*
X187882D02*
X188570D01*
X160867Y8841D02*
X161629D01*
X164313D02*
X165096D01*
X179054D02*
X179737D01*
X181427D02*
X182139D01*
X183459D02*
X184228D01*
X187882D02*
X188570D01*
X160907Y8934D02*
X161682D01*
X164264D02*
X165064D01*
X179054D02*
X179737D01*
X181417D02*
X182136D01*
X183502D02*
X184283D01*
X187882D02*
X188570D01*
X160950Y9028D02*
X161743D01*
X164211D02*
X165022D01*
X179054D02*
X179737D01*
X181397D02*
X182127D01*
X183548D02*
X184347D01*
X187882D02*
X188570D01*
X160998Y9122D02*
X161816D01*
X164141D02*
X164980D01*
X179054D02*
X179737D01*
X181365D02*
X182113D01*
X183599D02*
X184422D01*
X186742D02*
X186890D01*
X187882D02*
X188570D01*
X161055Y9215D02*
X161906D01*
X164058D02*
X164931D01*
X179054D02*
X179737D01*
X181322D02*
X182092D01*
X183657D02*
X184510D01*
X186605D02*
X186931D01*
X187882D02*
X188570D01*
X161115Y9309D02*
X162012D01*
X163955D02*
X164877D01*
X179054D02*
X179737D01*
X181254D02*
X182063D01*
X183718D02*
X184617D01*
X186466D02*
X186947D01*
X187882D02*
X188570D01*
X161184Y9403D02*
X162145D01*
X163824D02*
X164815D01*
X179054D02*
X179737D01*
X181146D02*
X182026D01*
X183789D02*
X184755D01*
X186289D02*
X186949D01*
X187882D02*
X188570D01*
X161257Y9496D02*
X162309D01*
X163645D02*
X164744D01*
X179054D02*
X179737D01*
X180958D02*
X181978D01*
X183864D02*
X184951D01*
X186066D02*
X186946D01*
X187882D02*
X188570D01*
X161343Y9590D02*
X162630D01*
X163322D02*
X164663D01*
X179054D02*
X181919D01*
X183950D02*
X186932D01*
X187882D02*
X188570D01*
X161445Y9684D02*
X164571D01*
X179054D02*
X181844D01*
X184050D02*
X186893D01*
X187882D02*
X188570D01*
X161558Y9778D02*
X164456D01*
X179054D02*
X181743D01*
X184166D02*
X186808D01*
X187882D02*
X188570D01*
X161702Y9871D02*
X164326D01*
X179055D02*
X181624D01*
X184308D02*
X186673D01*
X187882D02*
X188570D01*
X161868Y9965D02*
X164157D01*
X179069D02*
X181447D01*
X184476D02*
X186501D01*
X187882D02*
X188570D01*
X162089Y10059D02*
X163945D01*
X179130D02*
X181173D01*
X184693D02*
X186271D01*
X187889D02*
X188564D01*
X162432Y10152D02*
X163600D01*
X185048D02*
X185898D01*
D02*
D13*
X54250Y78531D02*
X54406Y78375D01*
X54719Y78219*
X55031Y78375*
X55187Y78531*
Y80094*
X55500*
X55187D02*
X54563D01*
X58000Y78219D02*
X56750D01*
X57844Y79313*
X58000Y79625*
X57844Y79937*
X57531Y80094*
X57063*
X56750Y79937*
X55250Y13031D02*
X55406Y12875D01*
X55719Y12719*
X56031Y12875*
X56187Y13031*
Y14594*
X56500*
X56187D02*
X55563D01*
X58063Y12719D02*
X58687D01*
X58375D02*
Y14594D01*
X58063Y14281*
X56969Y41813D02*
X57125Y41656D01*
X57281Y41344*
Y40875*
X57125Y40563*
X56969Y40406*
X56656Y40250*
X56031*
X55719Y40406*
X55563Y40563*
X55406Y40875*
Y41344*
X55563Y41656*
X55719Y41813*
X57281Y43063D02*
Y43687D01*
Y43375D02*
X55406D01*
X55719Y43063*
X55406Y54250D02*
X57281D01*
Y55813*
Y57063D02*
Y57687D01*
Y57375D02*
X55406D01*
X55719Y57063*
X60406Y16250D02*
X62281D01*
Y17813*
Y20000D02*
Y18750D01*
X61187Y19844*
X60875Y20000*
X60563Y19844*
X60406Y19531*
Y19063*
X60563Y18750*
X71313Y40631D02*
X71156Y40475D01*
X70844Y40319*
X70375*
X70063Y40475*
X69906Y40631*
X69750Y40944*
Y41569*
X69906Y41881*
X70063Y42037*
X70375Y42194*
X70844*
X71156Y42037*
X71313Y41881*
X72406Y40475D02*
X72719Y40319D01*
X73031*
X73344Y40475*
X73500Y40787*
X73344Y41100*
X73031Y41256*
X72719*
X73031D02*
X73344Y41413D01*
X73500Y41725*
X73344Y42037*
X73031Y42194*
X72719*
X72406Y42037*
X70250Y35219D02*
Y37094D01*
X71187*
X71500Y36937*
X71656Y36781*
X71813Y36469*
Y35844*
X71656Y35531*
X71500Y35375*
X71187Y35219*
X70250*
X74000D02*
X72750D01*
X73844Y36313*
X74000Y36625*
X73844Y36937*
X73531Y37094*
X73063*
X72750Y36937*
X70250Y45319D02*
Y47194D01*
X71344*
X71656Y47037*
X71813Y46725*
X71656Y46413*
X71344Y46256*
X70250*
X71344D02*
X71813Y45319D01*
X74000D02*
X72750D01*
X73844Y46413*
X74000Y46725*
X73844Y47037*
X73531Y47194*
X73063*
X72750Y47037*
X70250Y51319D02*
Y53194D01*
X71344*
X71656Y53037*
X71813Y52725*
X71656Y52413*
X71344Y52256*
X70250*
X71344D02*
X71813Y51319D01*
X73063D02*
X73687D01*
X73375D02*
Y53194D01*
X73063Y52881*
X71813Y57131D02*
X71656Y56975D01*
X71344Y56819*
X70875*
X70563Y56975*
X70406Y57131*
X70250Y57444*
Y58069*
X70406Y58381*
X70563Y58537*
X70875Y58694*
X71344*
X71656Y58537*
X71813Y58381*
X74000Y56819D02*
X72750D01*
X73844Y57913*
X74000Y58225*
X73844Y58537*
X73531Y58694*
X73063*
X72750Y58537*
X70250Y62319D02*
Y64194D01*
X71187*
X71500Y64037*
X71656Y63881*
X71813Y63569*
Y62944*
X71656Y62631*
X71500Y62475*
X71187Y62319*
X70250*
X73063D02*
X73687D01*
X73375D02*
Y64194D01*
X73063Y63881*
X76750Y33219D02*
Y35094D01*
X77687*
X78000Y34937*
X78156Y34781*
X78313Y34469*
Y33844*
X78156Y33531*
X78000Y33375*
X77687Y33219*
X76750*
X79406Y33375D02*
X79719Y33219D01*
X80031*
X80344Y33375*
X80500Y33687*
X80344Y34000*
X80031Y34156*
X79719*
X80031D02*
X80344Y34313D01*
X80500Y34625*
X80344Y34937*
X80031Y35094*
X79719*
X79406Y34937*
X81750Y14219D02*
Y16094D01*
X83313*
X83000Y15156D02*
X81750D01*
X84563Y14219D02*
X85187D01*
X84875D02*
Y16094D01*
X84563Y15781*
X88750Y69719D02*
Y71594D01*
X89844*
X90156Y71437*
X90313Y71125*
X90156Y70813*
X89844Y70656*
X88750*
X89844D02*
X90313Y69719D01*
X91406Y69875D02*
X91719Y69719D01*
X92031*
X92344Y69875*
X92500Y70187*
X92344Y70500*
X92031Y70656*
X91719*
X92031D02*
X92344Y70813D01*
X92500Y71125*
X92344Y71437*
X92031Y71594*
X91719*
X91406Y71437*
X101359Y61824D02*
Y59324D01*
X100109Y61199D02*
X102609Y59949D01*
Y61199D02*
X100109Y59949D01*
X104750Y34719D02*
Y36594D01*
X105844*
X106156Y36437*
X106313Y36125*
X106156Y35813*
X105844Y35656*
X104750*
X105844D02*
X106313Y34719D01*
X108031D02*
Y36594D01*
X107250Y35344*
X108500*
X109250Y28719D02*
Y30594D01*
X110187*
X110500Y30437*
X110656Y30281*
X110813Y29969*
Y29344*
X110656Y29031*
X110500Y28875*
X110187Y28719*
X109250*
X111750Y28875D02*
X112063Y28719D01*
X112531*
X112844Y28875*
X113000Y29187*
Y29344*
X112844Y29656*
X112531Y29813*
X111750*
Y30594*
X113000*
X109250Y66719D02*
Y68594D01*
X110187*
X110500Y68437*
X110656Y68281*
X110813Y67969*
Y67344*
X110656Y67031*
X110500Y66875*
X110187Y66719*
X109250*
X112531D02*
Y68594D01*
X111750Y67344*
X113000*
X119250Y34719D02*
Y36594D01*
X120187*
X120500Y36437*
X120656Y36281*
X120813Y35969*
Y35344*
X120656Y35031*
X120500Y34875*
X120187Y34719*
X119250*
X121750Y35187D02*
X121906Y35500D01*
X122219Y35656*
X122531*
X122844Y35500*
X123000Y35187*
X122844Y34875*
X122531Y34719*
X122219*
X121906Y34875*
X121750Y35187*
Y35656*
X121906Y36125*
X122219Y36437*
X122531Y36594*
X125250Y17687D02*
X125406Y17375D01*
X125719Y17219*
X126344*
X126656Y17375*
X126813Y17687*
X126656Y18000*
X126344Y18156*
X125719*
X125406Y18313*
X125250Y18625*
X125406Y18937*
X125719Y19094*
X126344*
X126656Y18937*
X126813Y18625*
X128063Y17219D02*
X128687D01*
X128375D02*
Y19094D01*
X128063Y18781*
X131750Y49219D02*
Y51094D01*
X132844*
X133156Y50937*
X133313Y50625*
X133156Y50313*
X132844Y50156*
X131750*
X132844D02*
X133313Y49219D01*
X134250D02*
X135500Y51094D01*
X134250*
X131750Y60719D02*
Y62594D01*
X132844*
X133156Y62437*
X133313Y62125*
X133156Y61813*
X132844Y61656*
X131750*
X132844D02*
X133313Y60719D01*
X134250Y61187D02*
X134406Y61500D01*
X134719Y61656*
X135031*
X135344Y61500*
X135500Y61187*
X135344Y60875*
X135031Y60719*
X134719*
X134406Y60875*
X134250Y61187*
Y61656*
X134406Y62125*
X134719Y62437*
X135031Y62594*
X134250Y29219D02*
Y31094D01*
X135344*
X135656Y30937*
X135813Y30625*
X135656Y30313*
X135344Y30156*
X134250*
X135344D02*
X135813Y29219D01*
X136750Y29375D02*
X137063Y29219D01*
X137531*
X137844Y29375*
X138000Y29687*
Y29844*
X137844Y30156*
X137531Y30313*
X136750*
Y31094*
X138000*
X142813Y10531D02*
X142656Y10375D01*
X142344Y10219*
X141875*
X141563Y10375*
X141406Y10531*
X141250Y10844*
Y11469*
X141406Y11781*
X141563Y11937*
X141875Y12094*
X142344*
X142656Y11937*
X142813Y11781*
X143750Y10375D02*
X144063Y10219D01*
X144531*
X144844Y10375*
X145000Y10687*
Y10844*
X144844Y11156*
X144531Y11313*
X143750*
Y12094*
X145000*
X145313Y86031D02*
X145156Y85875D01*
X144844Y85719*
X144375*
X144063Y85875*
X143906Y86031*
X143750Y86344*
Y86969*
X143906Y87281*
X144063Y87437*
X144375Y87594*
X144844*
X145156Y87437*
X145313Y87281*
X147031Y85719D02*
Y87594D01*
X146250Y86344*
X147500*
X163750Y83219D02*
Y85094D01*
X164844*
X165156Y84937*
X165313Y84625*
X165156Y84313*
X164844Y84156*
X163750*
X164844D02*
X165313Y83219D01*
X166719Y84156D02*
X167031D01*
X167344Y84313*
X167500Y84625*
X167344Y84937*
X167031Y85094*
X166719*
X166406Y84937*
X166250Y84625*
X166406Y84313*
X166719Y84156*
X166406Y84000*
X166250Y83687*
X166406Y83375*
X166719Y83219*
X167031*
X167344Y83375*
X167500Y83687*
X167344Y84000*
X167031Y84156*
X167750Y87719D02*
Y89594D01*
X168844*
X169156Y89437*
X169313Y89125*
X169156Y88813*
X168844Y88656*
X167750*
X168844D02*
X169313Y87719D01*
X170719D02*
X171031Y87875D01*
X171344Y88187*
X171500Y88656*
Y89125*
X171344Y89437*
X171031Y89594*
X170719*
X170406Y89437*
X170250Y89125*
X170406Y88813*
X170719Y88656*
X171031*
X171344Y88813*
X171500Y89125*
D02*
D14*
X84876Y56097D02*
Y58124D01*
X86903*
Y42376D02*
X84876D01*
Y44403*
X100624D02*
Y42376D01*
X98597*
X100624Y56097D02*
Y58124D01*
X98597*
D02*
D15*
X103750Y1250D02*
X53750D01*
Y11250*
X103750*
Y1250*
X123750Y81750D02*
X53750D01*
Y91750*
X123750*
Y81750*
X0Y0D02*
M02*
