G04 EasyPC Gerber Version 21.0.3 Build 4286 *
G04 #@! TF.Part,Single*
G04 #@! TF.FileFunction,Copper,L2,Bot *
G04 #@! TF.FilePolarity,Positive *
%FSLAX35Y35*%
%MOIN*%
G04 #@! TA.AperFunction,ComponentPad*
%ADD29R,0.06000X0.06000*%
G04 #@! TD.AperFunction*
%ADD11C,0.00500*%
%ADD15C,0.01000*%
%ADD75C,0.01500*%
%ADD73C,0.02500*%
G04 #@! TA.AperFunction,ViaPad*
%ADD72C,0.03200*%
G04 #@! TA.AperFunction,ComponentPad*
%ADD71C,0.03543*%
X0Y0D02*
D02*
D11*
X50250Y25250D02*
G75*
G02X52750Y22750J-2500D01*
G01*
Y3250*
X54500*
Y10500*
X60672*
X78336Y28164*
G75*
G02X79750Y28750I1414J-1414*
G01*
X151422*
X152900Y30228*
G75*
G02Y30250I2865J11*
G01*
G75*
G02X158250Y31619I2850*
G01*
G75*
G02X163250I2500J-1369*
G01*
G75*
G02X168250I2500J-1369*
G01*
G75*
G02X173250I2500J-1369*
G01*
G75*
G02X176092Y33080I2500J-1369*
G01*
X169336Y39836*
G75*
G02X168750Y41250I1414J1414*
G01*
Y61720*
G75*
G02X168250Y62381I1999J2030*
G01*
G75*
G02X163250I-2500J1369*
G01*
G75*
G02X158002Y62996I-2500J1369*
G01*
G75*
G02X152578Y62750I-2752J754*
G01*
X107619*
G75*
G02X108250Y58220I-1369J-2500*
G01*
Y55280*
G75*
G02Y51220I-2000J-2030*
G01*
Y42780*
G75*
G02X109100Y40750I-2000J-2030*
G01*
G75*
G02X103400I-2850*
G01*
G75*
G02X104250Y42780I2850*
G01*
Y51220*
G75*
G02X104220Y51250I1993J2023*
G01*
X96578*
X86600Y41272*
G75*
G02Y41250I-2872J-11*
G01*
G75*
G02X80900I-2850*
G01*
G75*
G02X83772Y44100I2850*
G01*
X94336Y54664*
G75*
G02X95750Y55250I1414J-1414*
G01*
X104220*
G75*
G02X104250Y55280I2023J-1993*
G01*
Y58220*
G75*
G02X104881Y62750I2000J2030*
G01*
X80250*
G75*
G02X78836Y63336J2000*
G01*
X59672Y82500*
X54500*
Y89750*
X52750*
Y70250*
G75*
G02X50250Y67750I-2500*
G01*
Y64100*
G75*
G02X52985Y62050J-2850*
G01*
X54518Y60518*
G75*
G02X55250Y58750I-1768J-1768*
G01*
Y42619*
G75*
G02X50250Y39881I-2500J-1369*
G01*
Y25250*
X114500Y38000D02*
Y51002D01*
G75*
G02X114400Y51750I2750J748*
G01*
G75*
G02X120100I2850*
G01*
G75*
G02X118000Y49000I-2850*
G01*
Y38000*
G75*
G02X119100Y35750I-1750J-2250*
G01*
G75*
G02X113400I-2850*
G01*
G75*
G02X114500Y38000I2850*
G01*
X168750Y43750D02*
G36*
X118000D01*
Y38000*
G75*
G02X119100Y35750I-1751J-2250*
G01*
G75*
G02X113400I-2850*
G01*
G75*
G02X114500Y38000I2851J0*
G01*
Y43750*
X108250*
Y42780*
G75*
G02X109100Y40750I-2002J-2031*
G01*
G75*
G02X103400I-2850*
G01*
G75*
G02X104250Y42780I2852J-1*
G01*
Y43750*
X89078*
X86600Y41272*
Y41250*
G75*
G02X80900I-2850*
G01*
G75*
G02X82382Y43750I2850J0*
G01*
X55250*
Y42619*
G75*
G02X55600Y41250I-2500J-1369*
G01*
G75*
G02X50500Y39501I-2850*
G01*
Y25237*
G75*
G02X52750Y22750I-250J-2488*
G01*
Y3500*
X54500*
Y10500*
X60672*
X78336Y28164*
G75*
G02X79750Y28750I1415J-1415*
G01*
X151422*
X152900Y30228*
Y30250*
G75*
G02X158250Y31619I2850*
G01*
G75*
G02X163250I2500J-1369*
G01*
G75*
G02X168250I2500J-1369*
G01*
G75*
G02X173250I2500J-1369*
G01*
G75*
G02X175842Y33099I2500J-1367*
G01*
Y33330*
X169336Y39836*
G75*
G02X168750Y41250I1415J1415*
G01*
Y43750*
G37*
X54500Y89500D02*
G36*
X52750D01*
Y70250*
G75*
G02X50500Y67763I-2500J0*
G01*
Y64089*
G75*
G02X52985Y62050I-250J-2839*
G01*
X54518Y60518*
G75*
G02X55250Y58751I-1766J-1767*
G01*
G75*
G02Y58750I-2820J0*
G01*
Y43750*
X82382*
G75*
G02X83772Y44100I1369J-2500*
G01*
X94336Y54664*
G75*
G02X95750Y55250I1415J-1415*
G01*
X104220*
G75*
G02X104250Y55280I599J-569*
G01*
Y58220*
G75*
G02X103400Y60250I2000J2030*
G01*
G75*
G02X104881Y62750I2850*
G01*
X80250*
G75*
G02X78836Y63336I0J2001*
G01*
X59672Y82500*
X54500*
Y89500*
G37*
X104250Y43750D02*
G36*
Y51220D01*
G75*
G02X104220Y51250I569J599*
G01*
X96578*
X89078Y43750*
X104250*
G37*
X168750D02*
G36*
Y61720D01*
G75*
G02X168250Y62381I2010J2039*
G01*
G75*
G02X163250I-2500J1369*
G01*
G75*
G02X158002Y62996I-2500J1369*
G01*
G75*
G02X152578Y62750I-2752J755*
G01*
X107619*
G75*
G02X109100Y60250I-1368J-2500*
G01*
G75*
G02X108250Y58220I-2850*
G01*
Y55280*
G75*
G02X109100Y53250I-2000J-2030*
G01*
G75*
G02X108250Y51220I-2850*
G01*
Y43750*
X114500*
Y51002*
G75*
G02X114400Y51750I2760J750*
G01*
G75*
G02X120100I2850*
G01*
G75*
G02X118000Y49000I-2850*
G01*
Y43750*
X168750*
G37*
X113000Y84828D02*
X114578Y83250D01*
X125922*
X132422Y89750*
X113000*
Y84828*
G36*
X114578Y83250*
X125922*
X132422Y89750*
X113000*
Y84828*
G37*
X128578Y80250D02*
X161750D01*
G75*
G02X163164Y79664J-2000*
G01*
X176278Y66551*
G75*
G02X177250Y66173I-528J-2801*
G01*
Y82220*
G75*
G02X177881Y86750I2000J2030*
G01*
X135078*
X128578Y80250*
G36*
X161750*
G75*
G02X163164Y79664J-2000*
G01*
X176278Y66551*
G75*
G02X177250Y66173I-528J-2801*
G01*
Y82220*
G75*
G02X177881Y86750I2000J2030*
G01*
X135078*
X128578Y80250*
G37*
X173250Y3250D02*
X183750Y13750D01*
Y65250*
X198750*
Y89750*
X184578*
X188664Y85664*
G75*
G02X189250Y84281I-1414J-1414*
G01*
G75*
G02X190100Y82250I-2000J-2031*
G01*
G75*
G02X184400I-2850*
G01*
G75*
G02X184863Y83808I2850J0*
G01*
X181922Y86750*
X180619*
G75*
G02X181250Y82220I-1369J-2500*
G01*
Y48750*
G75*
G02X180664Y47336I-2000*
G01*
X179817Y46489*
G75*
G02X180100Y45250I-2567J-1238*
G01*
G75*
G02X174400I-2850*
G01*
G75*
G02X175350Y47374I2850*
G01*
G75*
G02X175836Y48164I1900J-624*
G01*
X177250Y49578*
Y61327*
G75*
G02X173250Y62381I-1500J2423*
G01*
G75*
G02X172750Y61720I-2499J1369*
G01*
Y42078*
X180664Y34164*
G75*
G02X181250Y32750I-1414J-1414*
G01*
Y26750*
G75*
G02X180664Y25336I-2000*
G01*
X158578Y3250*
X173250*
G36*
X183750Y13750*
Y65250*
X198750*
Y89750*
X184578*
X188664Y85664*
G75*
G02X189250Y84281I-1414J-1414*
G01*
G75*
G02X190100Y82250I-2000J-2031*
G01*
G75*
G02X184400I-2850*
G01*
G75*
G02X184863Y83808I2850J0*
G01*
X181922Y86750*
X180619*
G75*
G02X181250Y82220I-1369J-2500*
G01*
Y48750*
G75*
G02X180664Y47336I-2000*
G01*
X179817Y46489*
G75*
G02X180100Y45250I-2567J-1238*
G01*
G75*
G02X174400I-2850*
G01*
G75*
G02X175350Y47374I2850*
G01*
G75*
G02X175836Y48164I1900J-624*
G01*
X177250Y49578*
Y61327*
G75*
G02X173250Y62381I-1500J2423*
G01*
G75*
G02X172750Y61720I-2499J1369*
G01*
Y42078*
X180664Y34164*
G75*
G02X181250Y32750I-1414J-1414*
G01*
Y26750*
G75*
G02X180664Y25336I-2000*
G01*
X158578Y3250*
X173250*
G37*
D02*
D15*
X116250Y35750D02*
Y51750D01*
X117250*
D02*
D71*
X116847Y6266D03*
X128658D03*
D02*
D29*
X58750Y6250D03*
Y86750D03*
X68750Y6250D03*
Y86750D03*
X78750Y6250D03*
Y86750D03*
X88750Y6250D03*
Y86750D03*
X98750Y6250D03*
Y86750D03*
X108750D03*
X118750D03*
D02*
D72*
X50250Y61250D03*
X52750Y41250D03*
X63250Y72250D03*
X75750Y39250D03*
X83750Y41250D03*
X106250Y40750D03*
Y53250D03*
Y60250D03*
X114250Y60750D03*
X116250Y35750D03*
X117250Y51750D03*
X140250Y83750D03*
X146750Y3750D03*
X155250Y63750D03*
X155750Y30250D03*
X160750D03*
Y63750D03*
X165250Y39750D03*
Y52250D03*
X165750Y30250D03*
Y63750D03*
X167750Y6750D03*
X170750Y30250D03*
Y63750D03*
X175750Y30250D03*
Y63750D03*
X177250Y45250D03*
X179250Y84250D03*
X187250Y82250D03*
X194250Y85750D03*
D02*
D73*
X52750Y41250D02*
Y58750D01*
X50250Y61250*
D02*
D75*
X58750Y6250D02*
X59250D01*
X79750Y26750*
X152250*
X155750Y30250*
X68750Y6250D02*
X85250Y22750D01*
X153250*
X160750Y30250*
X78750Y6250D02*
X78250D01*
X91250Y19250*
X154750*
X165750Y30250*
X78750Y86750D02*
Y85250D01*
X92250Y71750*
X158250*
X165750Y64250*
Y63750*
X83750Y41250D02*
X95750Y53250D01*
X106250*
X88750Y6250D02*
X90750D01*
Y8750*
X97250Y15250*
X155750*
X170750Y30250*
X88750Y86750D02*
Y85250D01*
X98750Y75250*
X159750*
X170750Y64250*
Y63750*
X98750Y6250D02*
Y6750D01*
X99750*
X104750Y11750*
X157750*
X175750Y29750*
Y30250*
X98750Y86750D02*
X99250D01*
X107750Y78250*
X161750*
X175750Y64250*
Y63750*
X106250Y53250D02*
Y40750D01*
Y53250D02*
Y60250D01*
X108750Y86750D02*
Y86250D01*
X113750Y81250*
X126750*
X134250Y88750*
X182750*
X187250Y84250*
Y82250*
X155250Y63750D02*
X154250Y64750D01*
X80250*
X58750Y86250*
Y86750*
X160750Y63750D02*
Y64250D01*
X156750Y68250*
X85750*
X68750Y85250*
Y86750*
X170750Y63750D02*
Y41250D01*
X179250Y32750*
Y26750*
X156250Y3750*
X146750*
X179250Y84250D02*
Y48750D01*
X177250Y46750*
Y45250*
X0Y0D02*
M02*
