G04 EasyPC Gerber Version 21.0.3 Build 4286 *
G04 #@! TF.Part,Single*
G04 #@! TF.FileFunction,Soldermask,Top *
G04 #@! TF.FilePolarity,Negative *
%FSLAX35Y35*%
%MOIN*%
G04 #@! TA.AperFunction,SMDPad*
%ADD84R,0.01800X0.03800*%
%ADD78R,0.03000X0.03000*%
%ADD85R,0.03800X0.01800*%
%ADD88R,0.02800X0.02600*%
%ADD77R,0.03000X0.03000*%
%ADD79R,0.03356X0.06506*%
%ADD89R,0.03400X0.04100*%
%ADD76R,0.03800X0.13800*%
%ADD81R,0.04537X0.03750*%
%ADD147R,0.04891X0.04537*%
%ADD87R,0.06600X0.13400*%
G04 #@! TA.AperFunction,ComponentPad*
%ADD90R,0.06600X0.06600*%
G04 #@! TA.AperFunction,SMDPad*
%ADD86R,0.10600X0.10600*%
G04 #@! TA.AperFunction,ViaPad*
%ADD91C,0.03800*%
G04 #@! TA.AperFunction,ComponentPad*
%ADD80C,0.04143*%
G04 #@! TA.AperFunction,SMDPad*
%ADD83R,0.25600X0.06900*%
%ADD82R,0.30600X0.06900*%
X0Y0D02*
D02*
D76*
X145750Y20250D03*
Y73050D03*
X150750Y20250D03*
Y73050D03*
X155750Y20250D03*
Y73050D03*
X160750Y20250D03*
Y73050D03*
X165750Y20250D03*
Y73050D03*
X170750Y20250D03*
Y73050D03*
X175750Y20250D03*
Y73050D03*
X180750Y20250D03*
Y73050D03*
X185750D03*
X190750D03*
X195750D03*
D02*
D77*
X63250Y36250D03*
Y41350D03*
Y57850D03*
Y63350D03*
X63350Y46150D03*
Y52150D03*
X67150Y36250D03*
Y41350D03*
Y57850D03*
Y63350D03*
X67250Y46150D03*
Y52150D03*
X88350Y67150D03*
X92250D03*
X97850Y35650D03*
X101750D03*
X127250Y30350D03*
X131150D03*
X131750Y57850D03*
X131850Y53650D03*
X135650Y57850D03*
X135750Y53650D03*
X170250Y83850D03*
X174150D03*
X174250Y88350D03*
X178150D03*
D02*
D78*
X56150Y32750D03*
Y36650D03*
X142850Y3850D03*
Y7750D03*
D02*
D79*
X113892Y13140D03*
X125703D03*
X131608D03*
D02*
D80*
X116847Y6266D03*
X128658D03*
D02*
D81*
X108970Y3297D03*
Y10187D03*
X136530Y3297D03*
Y10187D03*
D02*
D82*
X19250Y31250D03*
Y61250D03*
D02*
D83*
X21750Y41250D03*
Y51250D03*
D02*
D84*
X88813Y42776D03*
Y57724D03*
X90781Y42776D03*
Y57724D03*
X92750Y42776D03*
Y57724D03*
X94719Y42776D03*
Y57724D03*
X96687Y42776D03*
Y57724D03*
D02*
D85*
X85276Y46313D03*
Y48281D03*
Y50250D03*
Y52219D03*
Y54187D03*
X100224Y46313D03*
Y48281D03*
Y50250D03*
Y52219D03*
Y54187D03*
D02*
D86*
X92750Y50250D03*
D02*
D87*
X67750Y24750D03*
X84750D03*
D02*
D88*
X82950Y34250D03*
X86750D03*
D02*
D89*
X56250Y62200D03*
Y67300D03*
X61250Y23200D03*
Y28300D03*
D02*
D90*
X58750Y6250D03*
Y86750D03*
X68750Y6250D03*
Y86750D03*
X78750Y6250D03*
Y86750D03*
X88750Y6250D03*
Y86750D03*
X98750Y6250D03*
Y86750D03*
X108750D03*
X118750D03*
D02*
D91*
X50250Y61250D03*
X52750Y41250D03*
X63250Y72250D03*
X75750Y39250D03*
X83750Y41250D03*
X106250Y40750D03*
Y53250D03*
Y60250D03*
X114250Y60750D03*
X116250Y35750D03*
X117250Y51750D03*
X140250Y83750D03*
X146750Y3750D03*
X155250Y63750D03*
X155750Y30250D03*
X160750D03*
Y63750D03*
X165250Y39750D03*
Y52250D03*
X165750Y30250D03*
Y63750D03*
X167750Y6750D03*
X170750Y30250D03*
Y63750D03*
X175750Y30250D03*
Y63750D03*
X177250Y45250D03*
X179250Y84250D03*
X187250Y82250D03*
X194250Y85750D03*
D02*
D147*
X98250Y29750D03*
Y67250D03*
X105250Y29750D03*
Y67250D03*
X127250Y35750D03*
X134250D03*
X151250Y86750D03*
X158250D03*
X0Y0D02*
M02*
