G04 EasyPC Gerber Version 21.0.3 Build 4286 *
G04 #@! TF.Part,Single*
G04 #@! TF.FileFunction,Paste,Top *
G04 #@! TF.FilePolarity,Positive *
%FSLAX35Y35*%
%MOIN*%
G04 #@! TA.AperFunction,SMDPad*
%ADD100R,0.00600X0.02600*%
%ADD94R,0.01800X0.01800*%
%ADD96R,0.02156X0.05306*%
%ADD105R,0.02200X0.02900*%
%ADD92R,0.02600X0.12600*%
%ADD101R,0.02600X0.00600*%
%ADD104R,0.01600X0.01400*%
%ADD93R,0.01800X0.01800*%
%ADD97R,0.03337X0.02550*%
%ADD95R,0.03691X0.03337*%
%ADD103R,0.05400X0.12200*%
%ADD102R,0.09400X0.09400*%
%ADD99R,0.24400X0.05700*%
%ADD98R,0.29400X0.05700*%
X0Y0D02*
D02*
D92*
X145750Y20250D03*
Y73050D03*
X150750Y20250D03*
Y73050D03*
X155750Y20250D03*
Y73050D03*
X160750Y20250D03*
Y73050D03*
X165750Y20250D03*
Y73050D03*
X170750Y20250D03*
Y73050D03*
X175750Y20250D03*
Y73050D03*
X180750Y20250D03*
Y73050D03*
X185750D03*
X190750D03*
X195750D03*
D02*
D93*
X63250Y36250D03*
Y41350D03*
Y57850D03*
Y63350D03*
X63350Y46150D03*
Y52150D03*
X67150Y36250D03*
Y41350D03*
Y57850D03*
Y63350D03*
X67250Y46150D03*
Y52150D03*
X88350Y67150D03*
X92250D03*
X97850Y35650D03*
X101750D03*
X127250Y30350D03*
X131150D03*
X131750Y57850D03*
X131850Y53650D03*
X135650Y57850D03*
X135750Y53650D03*
X170250Y83850D03*
X174150D03*
X174250Y88350D03*
X178150D03*
D02*
D94*
X56150Y32750D03*
Y36650D03*
X142850Y3850D03*
Y7750D03*
D02*
D95*
X98250Y29750D03*
Y67250D03*
X105250Y29750D03*
Y67250D03*
X127250Y35750D03*
X134250D03*
X151250Y86750D03*
X158250D03*
D02*
D96*
X113892Y13140D03*
X125703D03*
X131608D03*
D02*
D97*
X108970Y3297D03*
Y10187D03*
X136530Y3297D03*
Y10187D03*
D02*
D98*
X19250Y31250D03*
Y61250D03*
D02*
D99*
X21750Y41250D03*
Y51250D03*
D02*
D100*
X88813Y42776D03*
Y57724D03*
X90781Y42776D03*
Y57724D03*
X92750Y42776D03*
Y57724D03*
X94719Y42776D03*
Y57724D03*
X96687Y42776D03*
Y57724D03*
D02*
D101*
X85276Y46313D03*
Y48281D03*
Y50250D03*
Y52219D03*
Y54187D03*
X100224Y46313D03*
Y48281D03*
Y50250D03*
Y52219D03*
Y54187D03*
D02*
D102*
X92750Y50250D03*
D02*
D103*
X67750Y24750D03*
X84750D03*
D02*
D104*
X82950Y34250D03*
X86750D03*
D02*
D105*
X56250Y62200D03*
Y67300D03*
X61250Y23200D03*
Y28300D03*
X0Y0D02*
M02*
